<svg width="215" height="124" viewBox="0 0 215 124" xmlns="http://www.w3.org/2000/svg"><title>p_delivery</title><path d="M112.802.616L98.636 7.06c.926-.305 1.97-.41 3.127-.35 2.416.127 5.27.953 8.136 2.424 2.86 1.47 5.22 3.314 6.73 5.2.148.184.286.392.416.575.022-.075.04-.15.064-.224.748-2.3 2.303-4.855 4.467-7.243 2.163-2.387 4.547-4.166 6.764-5.136 1.11-.486 2.178-.746 3.19-.766 1.014-.02 2.002.22 2.745.894.743.673 1.133 1.67 1.212 2.68.08 1.01-.104 2.072-.478 3.223-.312.954-.767 1.955-1.34 2.967L156.13.616h-43.327zm46.934 0l.223.446-28.62 13.624c-.25.303-.528.595-.798.893-1.47 1.622-3.04 2.957-4.594 3.956h41.987L209.54.616h-49.804zM214.9 2.658l-44.157 20.068v32.448L214.9 35.106V2.658zm-83.305.893c-.642.013-1.526.232-2.457.64-1.86.814-4.065 2.42-6.062 4.625-1.997 2.205-3.392 4.577-4.02 6.51-.314.965-.434 1.816-.383 2.456.018.232.046.432.096.607L130 13.06c1.473-1.848 2.543-3.733 3.062-5.33.315-.965.434-1.848.383-2.488-.05-.64-.255-1.048-.542-1.308-.288-.26-.666-.396-1.308-.383zM97.71 7.476l-26.544 12.06h32.51c-2.546-1.403-4.643-3.085-6.03-4.817-.754-.945-1.28-1.93-1.562-2.904-.282-.973-.3-1.98.16-2.87.325-.634.85-1.113 1.467-1.47zm3.255 1.277c-.703.014-1.332.094-1.786.255-.607.214-.94.516-1.118.86-.177.346-.21.756-.032 1.373s.61 1.408 1.244 2.202c1.27 1.586 3.384 3.3 6.03 4.658 1.202.617 2.395 1.076 3.542 1.436h7.115c.104-.105.193-.228.256-.35.176-.347.244-.788.064-1.405s-.61-1.376-1.244-2.17c-1.27-1.584-3.42-3.3-6.062-4.657-2.646-1.36-5.246-2.095-7.275-2.2-.254-.015-.5-.006-.734 0zm23.866 9.03l-3.158 1.53c.41-.114.843-.274 1.308-.478.593-.26 1.206-.64 1.85-1.053zm-57.206 3.38L5.76 49.273h48.177l56.95-27.12c-.79-.13-1.612-.316-2.456-.574H67.625v-.415zm49.518.416c-.682.645-1.26 1.263-1.5 1.754-.33.68-.395 1.238-.32 1.947.153 1.416 1.04 3.32 1.405 5.997l-2.01.255c-.32-2.337-1.224-4.064-1.436-6.03-.078-.737-.047-1.52.192-2.297l-54.75 26.067h43.775l60.94-27.694h-40.935c.856.643 1.593 1.366 2.17 2.17 1.49 2.074 1.966 4.627 1.595 7.433l-2.01-.254c.322-2.433-.09-4.39-1.245-5.998-.97-1.35-2.62-2.473-4.913-3.35h-.958zm51.56 2.073l-64.067 29.13v32.45L168.7 56.1V23.65zM214.9 37.34l-44.157 20.068v34.745l44.157-20.07V37.34zM.846 51.504l-.35.16V85.9h50.792V53.355H.846v-1.85zm52.484 1.85V85.9h47.22V53.355H53.33zm115.37 4.978l-64.065 29.13v34.745l64.066-29.13V58.333zM.496 87.94v35.193h50.793V87.94H.495zm52.835 0v35.193h47.22V87.94H53.33z" fill="#1B2564" fill-rule="evenodd"/></svg>