<svg width="220" height="133" viewBox="0 0 220 133" xmlns="http://www.w3.org/2000/svg"><title>p_development</title><g fill="#1B2564" fill-rule="evenodd"><path d="M0 0v30h220V0H0zm3 2.156h4.344L3 14.344V2.156zm9.625 0h10l-9.25 25.875h-10l9.25-25.874zm15.063 0h10l-9.22 25.875h-10l9.22-25.874zm14.906 0h10l-9.22 25.875h-10l9.22-25.874zm15.093 0h10L58.47 28.03h-10l9.218-25.874zm14.813 0h10L73.28 28.03h-10L72.5 2.157zm15.094 0h10l-9.22 25.875h-10l9.22-25.874zm15 0h10l-9.25 25.875h-10l9.25-25.874zm15.156 0h10l-9.22 25.875h-10l9.22-25.874zm14.906 0h10l-9.22 25.875h-10l9.22-25.874zm14.906 0h10l-9.218 25.875h-10l9.22-25.874zm15 0h10l-9.218 25.875h-10l9.22-25.874zm15 0h10l-9.218 25.875h-10l9.22-25.874zm15 0h10l-9.218 25.875h-10l9.22-25.874zm15.157 0h10L208.5 28.03h-10l9.22-25.874zm8.843 13.656V28h-4.344l4.343-12.188zM58.242 31.797l-19.532.125-25.742 96.07 19.465.124 25.81-96.32zM203.012 127.702l-20.584.45-25.742-96.068 20.716.038 25.61 95.58z"/></g></svg>