<svg width="259" height="144" viewBox="0 0 259 144" xmlns="http://www.w3.org/2000/svg"><title>p_discovery</title><g fill="#1B2564" fill-rule="evenodd"><path d="M186.053 47.656c-3.88.172-6.976 2.058-7.42 4.818-.55 3.397 3.133 6.84 8.228 7.66 5.097.824 9.658-1.27 10.206-4.667.538-3.394-3.14-6.81-8.23-7.632-.955-.154-1.887-.22-2.783-.18zm-7.6 6.195c-18.384.286-35.21 10.518-44.74 26.396-21.212 2.06-35.883 8.61-37.47 18.435-2.623 16.253 31.5 35.28 76.194 42.496 44.694 7.216 83.056-.117 85.68-16.37v-.06c1.475-9.474-9.51-19.882-27.772-28.34-3.853-18.088-16.372-33.196-33.548-39.473-.008.14-.008.277-.03.42-.548 3.396-5.14 5.52-10.235 4.697-5.095-.822-8.748-4.264-8.2-7.66.03-.183.068-.365.12-.54zm-3.054 5.268l.568.778c-12.804 9.182-19.82 18.557-23.642 25.617-3.822 7.06-4.46 11.76-4.46 11.76l-.927-.12s.66-4.94 4.548-12.12c3.887-7.18 10.99-16.65 23.91-25.915zm18.434 5.117c5.253 6.843 7.207 17.61 7.9 26.665.695 9.054.09 16.43.09 16.43l-.957-.09s.598-7.307-.09-16.28c-.687-8.974-2.696-19.58-7.72-26.126l.777-.6zM130.87 94.46c13.34 6.613 29.375 11.792 46.983 14.635 17.57 2.836 34.39 2.96 49.11.898-.264.873-.505 1.722-.808 2.573-14.547 2.14-31.288 2.07-48.75-.748-17.497-2.824-33.387-8.037-46.536-14.664-.02-.902-.028-1.783 0-2.693zm-2.096 5.358c13.67 6.775 30.11 12.08 48.152 14.993 18.004 2.907 35.25 3.043 50.336.93-.27.894-.527 1.79-.838 2.662-14.906 2.192-32.053 2.08-49.947-.808-17.93-2.894-34.23-8.203-47.703-14.993-.02-.924-.027-1.85 0-2.782zm-2.065 5.357c14 6.938 30.81 12.37 49.288 15.352 18.438 2.976 36.115 3.123 51.564.958-.278.916-.55 1.83-.868 2.723-15.266 2.245-32.85 2.15-51.175-.808-18.362-2.964-35.042-8.428-48.84-15.382-.022-.948 0-1.888.03-2.843z"/><path d="M64.53.094L59.376 41.53c-3.688.77-7.137 2.375-10.063 4.69l-13.75-10.69 10.626 13.69c-2.573 2.924-4.355 6.425-5.188 10.186L.094 64.53l41.062 5.157c.914 3.65 2.727 7.027 5.282 9.844l-10.876 14 14.157-11c2.815 2.114 6.083 3.587 9.56 4.314l5.25 42.125 5.282-42.22c3.402-.798 6.58-2.313 9.313-4.438l14.406 11.22L82.407 79.25c2.43-2.75 4.165-6.013 5.063-9.53l41.5-5.19-41.345-5.186c-.794-3.637-2.477-7.034-4.906-9.907l10.81-13.906-13.968 10.845c-2.86-2.295-6.23-3.91-9.843-4.72L64.53.096zm-.468 59.968c1.12-.014 2.2.42 3 1.207.798.786 1.248 1.86 1.25 2.98.005 2.31-1.86 4.19-4.172 4.203-2.31.013-4.197-1.845-4.218-4.156-.022-2.31 1.83-4.204 4.14-4.234z"/></g></svg>