<svg width="236" height="140" viewBox="0 0 236 140" xmlns="http://www.w3.org/2000/svg"><title>p_measurement</title><g fill="none" fill-rule="evenodd"><path d="M230.333 11.68c-8.86-15.348-35.834-14.792-55.83 4.94-11.7 11.546-28.537 32.653-33.69 38.557l8.273 14.33c7.62-1.683 33.57-6.956 50.237-9.9l.09-.052c27.002-7.4 39.787-32.518 30.92-47.875zm-10.72 7.434c5.673 9.825 2.333 22.39-7.48 28.082l-.04.022c-9.837 5.68-22.417 2.3-28.097-7.54-5.68-9.838-2.312-22.41 7.527-28.09 9.84-5.68 22.41-2.312 28.09 7.526zM138.766 56.36l-7.87 10.002 3.544 6.14 12.6-1.814-8.274-14.33zM139.63 53.13l10.785-14.414c-8.58-9.066-30.164-6.13-43.705-4.79 11.185 9.92 27.672 7.554 32.92 19.204zM150.008 71.102l17.875-2.132c3.56 11.964-10.694 27.592-18.627 38.65-2.997-14.647 8.216-26.147.752-36.518z" fill="#1B2564"/><path d="M127 73L2 138" stroke="#1B2564" stroke-width="3.8" stroke-dasharray="3.79999995,3.79999995"/><path d="M205.65 36.098c0 6.902-5.594 12.497-12.495 12.5-6.9.004-12.5-5.586-12.506-12.487-.008-6.9 5.58-12.5 12.48-12.512 6.9-.01 12.505 5.574 12.52 12.475" fill="#1B2564"/><path d="M82 86L32 41" stroke="#1B2564" stroke-width="2" fill="#CCC"/><path d="M7 26h55M7 31h45M7 36h30" stroke="#1B2564" stroke-width="2"/><path d="M206.907 108.516L190.65 65.844" stroke="#1B2564" stroke-width="2" fill="#CCC"/><path d="M179.135 114.73h55M179.135 119.73h45M179.135 124.73h30" stroke="#1B2564" stroke-width="2"/></g></svg>