<svg width="255" height="125" viewBox="0 0 255 125" xmlns="http://www.w3.org/2000/svg"><title>p_personas</title><g fill="#1B2564" fill-rule="evenodd"><path d="M37.674.838c-13.757 0-24.91 11.153-24.91 24.91 0 11.572 7.91 21.255 18.605 24.054C12.756 62.305 12.747 99.616.31 124.494h74.73C62.6 99.616 62.592 62.304 43.98 49.802c10.694-2.8 18.605-12.482 18.605-24.054v-.078C62.557 11.932 51.413.838 37.675.838zm-4.476 61.77h9.108l-1.83 9.108H35.03l-1.83-9.108zm1.752 10.86h5.45l3.62 20.862-6.346 4.554-6.344-4.554 3.62-20.863zM127.624.838c-1.61 0-3.184.136-4.71.428 8.174 10.937 7.193 27.382 26.857 35.848 1.76-3.404 2.765-7.265 2.765-11.366v-.078C152.507 11.932 141.362.838 127.625.838zM116.26 3.6c-8.034 4.135-13.546 12.492-13.546 22.148 0 11.58 7.9 21.262 18.605 24.054-18.613 12.503-18.622 49.814-31.06 74.692h74.73c-12.44-24.878-12.45-62.19-31.06-74.692 5.41-1.416 10.106-4.58 13.428-8.874-22.497-10.042-16.505-22.732-31.1-37.327zm11.714 52.196c1.718 0 3.11 1.397 3.114 3.114 0 1.72-1.394 3.114-3.114 3.114s-3.113-1.394-3.113-3.114 1.395-3.114 3.114-3.114zm0 17.438c1.718 0 3.11 1.396 3.114 3.113 0 1.72-1.394 3.114-3.114 3.114s-3.113-1.393-3.113-3.113 1.395-3.113 3.114-3.113zm0 17.437c1.718 0 3.11 1.397 3.114 3.115 0 1.72-1.394 3.113-3.114 3.113s-3.113-1.394-3.113-3.113c0-1.72 1.395-3.114 3.114-3.114zM217.574.838c-13.758 0-24.91 11.153-24.91 24.91 0 11.572 7.91 21.255 18.604 24.054-18.61 12.503-18.62 49.814-31.06 74.692h74.73c-12.438-24.878-12.447-62.19-31.06-74.692 10.705-2.792 18.606-12.475 18.606-24.054v-.078C242.457 11.932 231.312.838 217.574.838zM206.17 63.23l7.706 2.57c-.76 1.894-.27 2.783 0 3.853l-7.706 2.57V63.23zm24.287 0v8.992l-7.706-2.57c.76-1.894.272-2.783 0-3.853l7.707-2.57zm-12.22 1.285c1.772 0 3.226 1.457 3.23 3.23 0 1.777-1.455 3.192-3.23 3.192-1.778 0-3.232-1.415-3.232-3.19 0-1.778 1.454-3.232 3.23-3.232z"/></g></svg>