<svg width="201" height="144" viewBox="0 0 201 144" xmlns="http://www.w3.org/2000/svg"><title>p_prototyping</title><g fill="#1B2564" fill-rule="evenodd"><path d="M53.95 59.487l-1.787 1.787c3.31 3.31 6.67 4.9 9.912 5.078 3.13.17 6.04-1.005 8.61-2.884 2.748-.892 5.527.002 8.653 1.015 3.145 1.02 6.667 2.13 10.358.69.013-.004.028.005.04 0 3.34-1.24 6.803-.288 10.602.732 3.813 1.024 7.983 2.094 12.227.122l-1.057-2.316c-3.35 1.56-6.74.773-10.52-.242-3.78-1.016-7.92-2.26-12.186-.65-2.78 1.097-5.558.285-8.692-.73-3.135-1.018-6.606-2.27-10.318-1.017l-.203.082-.163.122c-2.308 1.75-4.716 2.697-7.23 2.56-2.516-.138-5.246-1.347-8.246-4.347zm0-13.404l-1.787 1.787c3.31 3.308 6.67 4.94 9.912 5.118 3.1.17 5.977-1.036 8.53-2.884 2.772-.936 5.577-.048 8.733.975 3.145 1.018 6.667 2.128 10.358.69.013-.005.028.004.04 0 3.34-1.242 6.803-.29 10.602.73 3.74 1.005 7.824 2.023 11.983.204 3.258-.773 6.808-.224 10.52.162 3.664.38 7.554.56 11.294-1.26.01-.005.028.007.04 0 2.735-.904 5.504.144 8.652 1.22 3.163 1.08 6.775 2.127 10.48.203h.04l.04-.042c2.513-1.502 5.08-1.72 7.88-1.625 2.803.095 5.79.575 8.897.366l.08-.042h.123c2.55-.606 5.076-1.682 7.433-2.193 2.357-.512 4.417-.51 6.458.77h.04v.042c2.464 1.38 5.817 1.3 8.652 1.503 1.418.1 2.706.264 3.575.528.87.264 1.12.543 1.218.853l.285-.08.77 1.26.814-.53.853-.487-.285-.934c-.435-1.36-1.676-2.14-2.924-2.52-1.248-.378-2.677-.504-4.143-.608-2.915-.208-6.035-.37-7.515-1.178-.012-.008-.03.007-.04 0-2.72-1.692-5.66-1.635-8.328-1.057-2.665.58-5.15 1.616-7.392 2.153h-.04c-2.673.15-5.507-.306-8.45-.406-2.986-.1-6.14.203-9.18 1.99-.028.017-.053.024-.08.04-2.75 1.386-5.385.642-8.45-.405-3.097-1.06-6.568-2.446-10.317-1.18h-.08l-.082.042c-3.094 1.554-6.417 1.43-10.033 1.056-3.615-.376-7.476-1.006-11.373-.082h-.122l-.122.082c-3.35 1.557-6.74.73-10.52-.285-3.78-1.015-7.92-2.26-12.186-.65-2.78 1.097-5.558.285-8.693-.73-3.135-1.017-6.606-2.228-10.318-.976l-.203.04-.164.163c-2.307 1.75-4.715 2.697-7.23 2.56-2.515-.138-5.245-1.387-8.245-4.387zm0-14.623l-1.787 1.787c3.31 3.308 6.67 4.9 9.912 5.077 3.1.17 5.977-.996 8.53-2.843 2.772-.935 5.577-.047 8.733.976 3.145 1.02 6.667 2.13 10.358.69.013-.004.028.005.04 0 3.34-1.24 6.803-.29 10.602.73 3.74 1.006 7.824 2.024 11.983.205 3.258-.772 6.808-.223 10.52.163 3.66.38 7.558.554 11.294-1.26 2.747-.928 5.53.098 8.692 1.18 3.163 1.08 6.775 2.166 10.48.243h.04l.04-.04c2.513-1.503 5.08-1.76 7.88-1.667 2.803.094 5.79.574 8.897.365h.203c2.552-.606 5.076-1.682 7.433-2.193 2.357-.512 4.417-.51 6.458.77h.04v.042c2.464 1.38 5.817 1.3 8.652 1.503 1.418.1 2.706.264 3.575.528.87.264 1.12.503 1.218.812l.285-.08.772 1.3.812-.53.853-.527-.284-.934c-.434-1.36-1.676-2.1-2.924-2.478-1.248-.38-2.677-.505-4.143-.61-2.932-.21-6.087-.396-7.555-1.218v.04c-2.72-1.69-5.66-1.675-8.327-1.096-2.607.566-5.023 1.605-7.23 2.153h-.04c-2.717.176-5.612-.265-8.61-.366-2.987-.1-6.143.204-9.18 1.99-.03.018-.055.025-.083.042-2.75 1.385-5.384.64-8.448-.406-3.098-1.058-6.57-2.486-10.32-1.22l-.08.042-.08.04c-3.096 1.554-6.42 1.432-10.034 1.057-3.615-.376-7.476-1.047-11.374-.122l-.12.04-.123.082c-3.353 1.557-6.74.73-10.522-.285-3.78-1.015-7.918-2.26-12.186-.65-2.78 1.097-5.558.285-8.692-.73-3.135-1.017-6.606-2.23-10.318-.976l-.203.04-.163.123c-2.308 1.748-4.716 2.696-7.23 2.56-2.515-.14-5.246-1.347-8.246-4.347zm0-14.623l-1.787 1.787c3.31 3.308 6.67 4.9 9.912 5.077 3.13.172 6.04-1.003 8.61-2.883 2.748-.892 5.527.002 8.653 1.016 3.145 1.02 6.667 2.13 10.358.69.013-.005.028.005.04 0 3.34-1.24 6.803-.29 10.602.73 3.74 1.006 7.824 2.024 11.983.205 3.258-.773 6.808-.224 10.52.162 3.66.38 7.558.554 11.294-1.26 2.747-.928 5.53.098 8.692 1.18 3.163 1.08 6.775 2.166 10.48.242h.04l.04-.04c2.513-1.502 5.08-1.76 7.88-1.666 2.803.095 5.79.575 8.897.366h.08l.123-.04c2.552-.607 5.076-1.642 7.433-2.153 2.357-.513 4.417-.512 6.458.77h.04c2.464 1.38 5.817 1.342 8.652 1.544 1.418.1 2.706.264 3.575.528.87.264 1.12.503 1.218.812l.285-.08.772 1.3.812-.53.853-.527-.284-.934c-.435-1.36-1.676-2.1-2.924-2.478-1.248-.38-2.677-.505-4.143-.61-2.932-.21-6.087-.396-7.555-1.218-2.716-1.684-5.664-1.634-8.327-1.056-2.607.567-5.023 1.606-7.23 2.154h-.04c-2.717.176-5.612-.265-8.612-.366-2.985-.1-6.14.203-9.18 1.99-.028.017-.053.024-.08.04-2.75 1.386-5.385.602-8.45-.446-3.096-1.058-6.568-2.445-10.317-1.178l-.08.04-.08.04c-3.096 1.555-6.42 1.433-10.035 1.058-3.615-.376-7.476-1.047-11.373-.122l-.122.04-.122.04c-3.35 1.56-6.74.773-10.52-.243-3.78-1.015-7.92-2.26-12.186-.65-2.78 1.097-5.558.285-8.693-.73-3.135-1.017-6.606-2.27-10.318-1.016l-.203.082-.163.122c-2.308 1.748-4.716 2.696-7.23 2.56-2.516-.14-5.246-1.347-8.246-4.347zm0-14.014L52.164 4.61c3.31 3.308 6.67 4.94 9.912 5.118 3.1.17 5.977-1.036 8.53-2.884 2.772-.936 5.577-.048 8.733.975 3.145 1.02 6.667 2.128 10.358.69.013-.005.028.004.04 0 3.34-1.242 6.803-.29 10.602.73 3.74 1.005 7.824 2.024 11.983.204 3.258-.773 6.808-.223 10.52.162 3.664.38 7.554.56 11.294-1.26.01-.005.028.007.04 0 2.735-.904 5.504.144 8.652 1.22 3.163 1.08 6.775 2.127 10.48.203h.08c2.513-1.503 5.08-1.76 7.88-1.667 2.803.095 5.79.575 8.897.366l.08-.042h.123c2.55-.606 5.076-1.682 7.433-2.193 2.357-.512 4.417-.51 6.458.772h.04v.04c2.464 1.38 5.817 1.3 8.652 1.503 1.418.1 2.706.264 3.575.528.87.264 1.12.544 1.218.853l.285-.08.772 1.26.812-.488.853-.528-.284-.935c-.434-1.36-1.676-2.1-2.924-2.478-1.248-.38-2.677-.546-4.143-.65-2.915-.208-6.035-.37-7.515-1.178-.01-.008-.028.007-.04 0-2.72-1.692-5.66-1.635-8.327-1.056-2.665.578-5.148 1.615-7.392 2.153h-.04c-2.673.15-5.507-.266-8.45-.365-2.985-.1-6.14.162-9.18 1.95-.027.016-.053.024-.08.04-2.75 1.385-5.385.64-8.45-.406-3.096-1.06-6.568-2.446-10.317-1.18h-.08l-.08.042c-3.096 1.554-6.42 1.43-10.034 1.056-3.615-.376-7.476-1.006-11.374-.08h-.12l-.123.08c-3.353 1.557-6.74.73-10.522-.284-3.78-1.016-7.918-2.26-12.186-.65-2.78 1.097-5.558.285-8.692-.732-3.135-1.016-6.606-2.227-10.318-.974l-.203.08-.163.123c-2.308 1.75-4.716 2.697-7.23 2.56-2.516-.138-5.246-1.387-8.246-4.387zM20.86.156c-.888 0-1.755.075-2.597.236 4.508 6.032 3.967 15.1 14.812 19.77.97-1.877 1.524-4.007 1.524-6.268v-.043C34.583 6.276 28.436.157 20.86.157zM14.594 1.68c-4.43 2.28-7.47 6.89-7.47 12.214 0 6.386 4.357 11.726 10.26 13.266C7.12 34.055 7.113 54.632.253 68.353H41.47c-6.86-13.72-6.866-34.298-17.13-41.193 2.985-.78 5.574-2.526 7.406-4.894C19.337 16.728 22.642 9.73 14.594 1.68zm6.46 28.786c.948 0 1.716.77 1.718 1.717 0 .948-.768 1.717-1.716 1.717s-1.717-.77-1.717-1.717c0-.948.77-1.717 1.717-1.717zm0 9.616c.948 0 1.716.77 1.718 1.718 0 .948-.768 1.717-1.716 1.717s-1.717-.77-1.717-1.717c0-.95.77-1.718 1.717-1.718zm0 9.617c.948 0 1.716.77 1.718 1.716 0 .95-.768 1.718-1.716 1.718s-1.717-.77-1.717-1.718.77-1.717 1.717-1.717zM108.584 78.172V143.772H199.41V78.173H108.582zm5.484 2.518h79.817l-39.888 28.515-39.93-28.515zm-2.966 1.422l40.376 28.84-40.376 28.88v-57.72zm85.79 0v57.72l-40.418-28.84 40.417-28.88zm-42.895 30.627l39.888 28.514h-79.817l39.93-28.515zM5.898 82.437c-1.742 0-3.17 1.426-3.17 3.168 0 1.742 1.428 3.128 3.17 3.128s3.168-1.386 3.168-3.128v-.04c-.004-1.74-1.43-3.128-3.168-3.128zM15.2 83.86v3.776h75.714V83.86H15.2zM5.735 95.11c-1.742 0-3.168 1.427-3.168 3.17 0 1.74 1.426 3.167 3.168 3.167 1.742 0 3.17-1.426 3.17-3.168-.005-1.74-1.43-3.17-3.17-3.17zm9.465 1.34v3.82h75.714v-3.82H15.2zm-9.302 11.212c-1.742 0-3.17 1.426-3.17 3.168 0 1.742 1.428 3.128 3.17 3.128s3.168-1.386 3.168-3.128v-.04c-.004-1.74-1.43-3.128-3.168-3.128zm9.302 1.42v3.78h75.714v-3.78H15.2zm-9.302 11.253c-1.742 0-3.17 1.426-3.17 3.168 0 1.742 1.428 3.17 3.17 3.17s3.168-1.428 3.168-3.17c-.004-1.74-1.43-3.168-3.168-3.168zM15.2 122v3.778h75.714V122H15.2zm-9.302 10.968c-1.742 0-3.17 1.426-3.17 3.168 0 1.742 1.428 3.128 3.17 3.128s3.168-1.386 3.168-3.128c-.004-1.74-1.43-3.168-3.168-3.168zm9.302 1.665v3.778h75.714v-3.777H15.2z"/></g></svg>