<svg width="205" height="132" viewBox="0 0 205 132" xmlns="http://www.w3.org/2000/svg"><title>p_prioritisation</title><g fill="#1B2564" fill-rule="evenodd"><path d="M8.482.583c-4.024 0-7.318 3.295-7.318 7.32 0 4.023 3.294 7.223 7.318 7.223 4.024 0 7.32-3.2 7.32-7.224v-.094C15.79 3.79 12.5.583 8.48.583zM29.968 3.867v8.726h174.89V3.867H29.968zM8.107 29.857C4.083 29.857.79 33.15.79 37.175c0 4.024 3.293 7.318 7.317 7.318s7.318-3.294 7.318-7.318c-.008-4.018-3.3-7.318-7.318-7.318zM29.968 32.953v8.82h174.89v-8.82H29.968zM8.482 58.85c-4.024 0-7.318 3.293-7.318 7.317s3.294 7.224 7.318 7.224c4.024 0 7.32-3.2 7.32-7.223v-.094c-.01-4.018-3.302-7.224-7.32-7.224zM29.968 62.132v8.726h174.89v-8.726H29.968zM8.482 88.122c-4.024 0-7.318 3.294-7.318 7.318 0 4.024 3.294 7.32 7.318 7.32 4.024 0 7.32-3.296 7.32-7.32-.01-4.018-3.302-7.318-7.32-7.318zM29.968 91.97v8.724h174.89V91.97H29.968zM8.482 117.3c-4.024 0-7.318 3.296-7.318 7.32 0 4.024 3.294 7.224 7.318 7.224 4.024 0 7.32-3.2 7.32-7.224-.01-4.018-3.302-7.32-7.32-7.32zM29.968 121.148v8.726h174.89v-8.726H29.968z"/></g></svg>