<svg width="261" height="126" viewBox="0 0 261 126" xmlns="http://www.w3.org/2000/svg"><title>p_user-stories</title><g fill="#1B2564" fill-rule="evenodd"><path d="M23.235 25.16l-.473 1.763-21.726 81.083-.472 1.762 1.763.473 56.405 15.114 1.763.473.472-1.763L82.693 42.98l.472-1.76-1.763-.473-56.405-15.114-1.762-.473zm2.58 4.47l52.88 14.17-20.78 77.557-52.88-14.17 20.78-77.557zM50.95 40.876c-4.138-1.11-8.388 1.344-9.497 5.484-.933 3.482.662 7.044 3.654 8.75-6.61 2.26-9.615 13.486-15.364 19.97l22.474 6.02c-1.737-8.488 1.272-19.713-3.32-24.976 3.443.02 6.605-2.267 7.538-5.75l.007-.02c1.1-4.137-1.356-8.37-5.49-9.478zm-6.326 18.236l2.733.732-1.283 2.585-1.63-.438.18-2.88zm-.344 3.403l1.63.437-.58 6.574-2.284.853-1.55-1.88 2.784-5.985zM18.634 77.582l-.566 2.115 42.304 11.335.566-2.115-42.304-11.335zm-1.89 7.05l-.566 2.115 42.304 11.336.567-2.115-42.305-11.336zm-1.888 7.05L14.29 93.8l42.303 11.335.567-2.115-42.304-11.335zm-1.89 7.052l-.566 2.115 42.304 11.334.567-2.115-42.303-11.336zM87.8 29.636l.48 1.79L110 112.488l.47 1.752 1.752-.47 56.416-15.116 1.752-.47-.47-1.752L148.2 15.37l-.48-1.79-1.752.47-56.416 15.116-1.752.47zm4.454 2.603l52.91-14.178 20.782 77.557-52.91 14.177L92.253 32.24zm26.284-2.47c-.482.128-.935.32-1.368.53 3.322 2.617 4.343 7.593 10.905 8.55.254-1.16.22-2.378-.108-3.605l-.01-.038c-1.11-4.11-5.308-6.54-9.418-5.438h-.002zm-3.204 1.756c-2.072 1.88-3.036 4.82-2.26 7.71.927 3.465 4.062 5.732 7.49 5.71-4.568 5.233-1.576 16.41-3.304 24.85l1.18-.316c-.01.053-.034.082-.045.135l22.475-6.022-.117-.132-1.143.307c-5.7-6.45-8.713-17.586-15.276-19.832 1.506-.858 2.674-2.197 3.324-3.75-7.537-1.2-6.786-5.462-12.324-8.66zm7.69 14.68c.514-.14 1.07.182 1.207.696.14.515-.19 1.032-.706 1.17-.515.137-1.02-.155-1.16-.67-.137-.514.145-1.06.66-1.197zm1.398 5.218c.514-.138 1.06.145 1.197.66.137.513-.183 1.068-.698 1.206-.514.138-1.03-.193-1.17-.707-.137-.515.156-1.02.67-1.16zm1.4 5.218c.512-.137 1.057.146 1.196.66.138.514-.183 1.07-.697 1.207s-1.03-.194-1.17-.708c-.137-.515.156-1.022.67-1.16zm-15.8 20.728l.56 2.095 42.322-11.34-.56-2.095-42.322 11.34zm1.888 7.047l.56 2.096 42.323-11.34-.562-2.096-42.32 11.34zm1.888 7.048l.56 2.095 42.323-11.34-.56-2.095-42.322 11.34zm1.888 7.047l.562 2.095 42.32-11.34-.56-2.095-42.322 11.34zM200.136.55l-.473 1.734-21.69 81.082-.473 1.775 1.735.474 56.434 15.104 1.734.473.474-1.734 21.73-81.082.472-1.775-1.774-.474L201.91 1.022 200.137.55zm2.603 4.455l52.884 14.158-20.783 77.572-52.884-14.158L202.74 5.005zm22.557 11.516c-3.276.13-6.245 2.346-7.138 5.68-.926 3.45.662 6.986 3.627 8.676-6.437 2.203-9.437 12.97-14.946 19.442h-.04c-.042.05-.112.068-.156.118l.08.04c-.056.063-.104.134-.16.197l22.283 5.955c-.016-.077-.025-.16-.04-.237l.316.08-.04-.197-.315-.08c-1.54-8.36 1.28-19.203-3.194-24.332 3.415.024 6.528-2.224 7.453-5.677 1.09-4.1-1.345-8.328-5.442-9.426-.77-.206-1.53-.266-2.287-.236zm-6.073 17.944l2.09 1.38c-.378.505-.31.804-.315 1.144l-2.525.158.75-2.682zm3.076 1.34c.128-.017.262-.034.394 0 .53.143.85.694.71 1.224-.142.53-.693.852-1.222.71-.53-.142-.852-.693-.71-1.223.106-.397.443-.656.828-.71zm4.14.593l-.71 2.68-2.09-1.38c.38-.503.312-.802.316-1.143l2.485-.157zM195.563 52.96l-.592 2.13 42.316 11.318.552-2.13-42.276-11.318zm-1.893 7.06l-.593 2.09 42.316 11.357.592-2.13L193.67 60.02zm-1.894 7.02l-.552 2.13L233.5 80.526l.592-2.13-42.316-11.358zm-1.893 7.058l-.552 2.13 42.277 11.318.592-2.09-42.317-11.358z"/></g></svg>