<svg width="261" height="117" viewBox="0 0 261 117" xmlns="http://www.w3.org/2000/svg"><title>p_visual-design</title><g fill="#1B2564" fill-rule="evenodd"><path d="M59.406 0c-2.47 0-4.468 1.998-4.468 4.47v71.75c0 2.47 1.997 4.436 4.468 4.436H166.47c2.47 0 4.468-1.966 4.468-4.437V4.47c0-2.472-1.998-4.47-4.47-4.47H59.407zm4.47 8.906H162v58H63.875v-58z"/><path d="M99.554 77.613h26.763c-1.142 11.12 7.222 13.464 13.382 17.843H86.17c6.582-3.99 14.254-6.973 13.382-17.843zM180.97 55.03v54.47h75V55.03h-75zm5 5h65v40h-65v-40z"/><path d="M175.98 105.02h85V110h-85zM3.344 50.063c-1.3 0-2.375 1.074-2.375 2.374v61.282c0 1.3 1.073 2.343 2.374 2.343h35.312c1.3 0 2.344-1.044 2.344-2.344V52.437c0-1.3-1.043-2.376-2.344-2.376H3.344zm5.22 5h25.31c1.302 0 2.345 1.074 2.345 2.374V97.72c0 1.3-1.044 2.343-2.345 2.343H8.562c-1.3 0-2.343-1.044-2.343-2.344V57.437c0-1.3 1.042-2.376 2.343-2.376zM21.498 105c1.38 0 2.497 1.12 2.5 2.5 0 1.38-1.12 2.5-2.5 2.5s-2.5-1.12-2.5-2.5 1.12-2.5 2.5-2.5z"/></g></svg>