<?xml version="1.0" encoding="UTF-8" standalone="no"?>
<!-- Created with Inkscape (http://www.inkscape.org/) -->

<svg
   xmlns:dc="http://purl.org/dc/elements/1.1/"
   xmlns:cc="http://creativecommons.org/ns#"
   xmlns:rdf="http://www.w3.org/1999/02/22-rdf-syntax-ns#"
   xmlns:svg="http://www.w3.org/2000/svg"
   xmlns="http://www.w3.org/2000/svg"
   xmlns:sodipodi="http://sodipodi.sourceforge.net/DTD/sodipodi-0.dtd"
   xmlns:inkscape="http://www.inkscape.org/namespaces/inkscape"
   version="1.1"
   width="280"
   height="165"
   id="svg2"
   inkscape:version="0.48.4 r9939"
   sodipodi:docname="p_delivery.svg"
   inkscape:export-filename="C:\xampp\htdocs\neon_40\content\themes\a11y\assets\css\images\p_delivery.png"
   inkscape:export-xdpi="90"
   inkscape:export-ydpi="90">
  <sodipodi:namedview
     pagecolor="#ffffff"
     bordercolor="#666666"
     borderopacity="1"
     objecttolerance="10"
     gridtolerance="10"
     guidetolerance="10"
     inkscape:pageopacity="0"
     inkscape:pageshadow="2"
     inkscape:window-width="1366"
     inkscape:window-height="705"
     id="namedview16"
     showgrid="false"
     inkscape:zoom="2.0428571"
     inkscape:cx="82.576095"
     inkscape:cy="82.273265"
     inkscape:window-x="-8"
     inkscape:window-y="-8"
     inkscape:window-maximized="1"
     inkscape:current-layer="svg2">
    <inkscape:grid
       type="xygrid"
       id="grid3053" />
  </sodipodi:namedview>
  <defs
     id="defs4" />
  <metadata
     id="metadata7">
    <rdf:RDF>
      <cc:Work
         rdf:about="">
        <dc:format>image/svg+xml</dc:format>
        <dc:type
           rdf:resource="http://purl.org/dc/dcmitype/StillImage" />
        <dc:title></dc:title>
      </cc:Work>
    </rdf:RDF>
  </metadata>
  <g
     transform="translate(0,-887.36218)"
     id="layer1" />
  <path
     d="m 172.47294,-190.14146 c -3.88132,0.17245 -6.97623,2.05819 -7.42179,4.81818 -0.54838,3.3969 3.13445,6.83863 8.22981,7.6612 5.09536,0.82258 9.65658,-1.27164 10.20496,-4.66854 0.53739,-3.39373 -3.14168,-6.80987 -8.22981,-7.63128 -0.95538,-0.15423 -1.88748,-0.21936 -2.78317,-0.17956 z m -7.60135,6.1948 c -18.38261,0.28578 -35.20809,10.51731 -44.74022,26.39523 -21.21042,2.06015 -35.88192,8.60956 -37.46806,18.43477 -2.623743,16.25254 31.49859,35.28044 76.19304,42.495727 44.69446,7.2153 83.05601,-0.11731 85.67976,-16.369837 l 0,-0.0599 c 1.47588,-9.47418 -9.50882,-19.88264 -27.77185,-28.34046 -3.85298,-18.08843 -16.37158,-33.1963 -33.54768,-39.47309 -0.008,0.14145 -0.008,0.2774 -0.0299,0.41897 -0.5484,3.3969 -5.13953,5.52104 -10.23488,4.69847 -5.09535,-0.82257 -8.74827,-4.2643 -8.19988,-7.6612 0.029,-0.1821 0.0677,-0.3644 0.1197,-0.53868 z m -3.05251,5.26708 0.56861,0.77809 c -12.804,9.18257 -19.81987,18.55724 -23.64199,25.61714 -3.82213,7.0599 -4.45906,11.76114 -4.45906,11.76114 l -0.92772,-0.1197 c 0,0 0.66177,-4.94041 4.54884,-12.12027 3.88706,-7.17985 10.99131,-16.65063 23.91132,-25.9164 z m 18.43477,5.11744 c 5.25258,6.84271 7.20683,17.61018 7.90061,26.66457 0.69373,9.0544 0.0898,16.42969 0.0898,16.42969 l -0.95765,-0.0898 c 0,0 0.59779,-7.30685 -0.0898,-16.28006 -0.68756,-8.9732 -2.69606,-19.57966 -7.72105,-26.12589 l 0.77809,-0.59853 z m -62.9655,30.22583 c 13.34135,6.61196 29.3767,11.79153 46.98471,14.6341 17.56955,2.83637 34.38818,2.96141 49.1095,0.89779 -0.26446,0.87334 -0.50472,1.72182 -0.80802,2.57369 -14.54675,2.13933 -31.28778,2.07094 -48.75038,-0.74817 -17.49641,-2.82455 -33.38651,-8.03749 -46.53581,-14.66401 -0.0195,-0.90276 -0.0266,-1.7829 0,-2.6934 z m -2.09486,5.35686 c 13.6711,6.77538 30.10868,12.08039 48.15185,14.99321 18.0038,2.90646 35.25135,3.04234 50.33648,0.92772 -0.27098,0.89493 -0.52714,1.79055 -0.83794,2.66347 -14.90627,2.19221 -32.05326,2.08074 -49.94744,-0.80802 -17.92883,-2.89436 -34.22865,-8.2029 -47.70295,-14.99321 -0.0201,-0.92507 -0.0272,-1.85018 0,-2.78317 z m -2.06493,5.35686 c 14.00082,6.93878 30.81068,12.36925 49.28905,15.35233 18.43803,2.97654 36.11449,3.12327 51.56348,0.95765 -0.27753,0.91651 -0.54959,1.82934 -0.86787,2.72331 -15.26581,2.24507 -32.84867,2.15043 -51.17443,-0.80801 -18.36127,-2.96417 -35.04088,-8.42817 -48.84016,-15.38226 -0.0207,-0.94739 0.002,-1.88751 0.0299,-2.84302 z"
     id="path6509"
     style="fill:#cccccc;fill-opacity:1;fill-rule:evenodd;stroke:#cccccc;stroke-width:0;stroke-linecap:round;stroke-linejoin:round;stroke-miterlimit:4;stroke-opacity:1;stroke-dashoffset:0"
     inkscape:connector-curvature="0" />
  <path
     d="m 50.962656,-237.7063 -8.055019,64.44015 8.055019,64.44016 8.05502,-64.44016 z"
     id="path6555"
     style="fill:#cccccc;stroke:#000000;stroke-width:0;stroke-linecap:butt;stroke-linejoin:miter;stroke-miterlimit:4;stroke-opacity:1;stroke-dasharray:none"
     inkscape:connector-curvature="0" />
  <path
     d="m 115.40281,-173.26615 -64.440155,-8.05502 -64.440154,8.05502 64.440154,8.05502 z"
     id="path6557"
     style="fill:#cccccc;stroke:#000000;stroke-width:0;stroke-linecap:butt;stroke-linejoin:miter;stroke-miterlimit:4;stroke-opacity:1;stroke-dasharray:none"
     inkscape:connector-curvature="0" />
  <path
     d="m 79.947251,-202.25074 -32.60767,25.36152 -25.36152,32.60766 32.607669,-25.36151 z"
     id="path6559"
     style="fill:#cccccc;stroke:#000000;stroke-width:0;stroke-linecap:butt;stroke-linejoin:miter;stroke-miterlimit:4;stroke-opacity:1;stroke-dasharray:none"
     inkscape:connector-curvature="0" />
  <path
     d="m 79.94725,-144.28156 -25.36152,-32.60766 -32.60767,-25.36152 25.361521,32.60767 z"
     id="path6561"
     style="fill:#cccccc;stroke:#000000;stroke-width:0;stroke-linecap:butt;stroke-linejoin:miter;stroke-miterlimit:4;stroke-opacity:1;stroke-dasharray:none"
     inkscape:connector-curvature="0" />
  <path
     d="m 54.739319,-173.5385 a 4.1955379,4.1955379 0 1 1 -8e-6,-0.008"
     id="path6563"
     style="fill:#ffffff;fill-opacity:1;fill-rule:evenodd;stroke:#cccccc;stroke-width:0;stroke-linecap:round;stroke-linejoin:round;stroke-miterlimit:4;stroke-opacity:1;stroke-dasharray:none;stroke-dashoffset:0"
     inkscape:connector-curvature="0" />
  <path
     d="m 74.601587,-173.58816 a 23.858675,23.184929 0 1 1 -4.9e-5,-0.0465"
     id="path6569"
     style="fill:none;stroke:#cccccc;stroke-width:2.13131237;stroke-linecap:round;stroke-linejoin:round;stroke-miterlimit:4;stroke-opacity:1;stroke-dasharray:none;stroke-dashoffset:0"
     inkscape:connector-curvature="0" />
  <path
     style="fill:#cccccc;stroke:#000000;stroke-width:0;stroke-linecap:butt;stroke-linejoin:miter;stroke-miterlimit:4;stroke-opacity:1;stroke-dasharray:none"
     d="m 146.80245,38.615605 -14.16608,6.44493 c 0.92545,-0.305312 1.97033,-0.411728 3.12675,-0.350961 2.41628,0.126975 5.26948,0.952962 8.13593,2.424824 2.86238,1.469778 5.22059,3.31341 6.73207,5.200613 0.14667,0.183125 0.28449,0.391149 0.41478,0.5743 0.0223,-0.07386 0.0397,-0.148981 0.0639,-0.223339 0.74804,-2.301091 2.30319,-4.854741 4.46678,-7.24257 2.16361,-2.387831 4.54757,-4.166212 6.76399,-5.136802 1.10821,-0.485292 2.17725,-0.745895 3.19056,-0.765732 1.01333,-0.01984 2.00086,0.220109 2.74388,0.893355 0.74302,0.673246 1.13257,1.669705 1.21242,2.680071 0.0799,1.010367 -0.10449,2.07192 -0.47859,3.222465 -0.31036,0.954731 -0.76598,1.955417 -1.34003,2.96722 l 22.46153,-10.688374 -43.32779,0 z m 46.93313,0 0.22335,0.446678 -28.61933,13.623689 c -0.25104,0.302843 -0.52719,0.594877 -0.79764,0.893357 -1.47036,1.622749 -3.03945,2.957515 -4.59441,3.956293 l 41.98777,0 41.60489,-18.920017 -49.80463,0 z m 55.16477,2.041958 -44.15734,20.068618 0,32.447995 44.15734,-20.068624 0,-32.447989 z m -83.3055,0.893356 c -0.64211,0.01257 -1.52622,0.230636 -2.45673,0.638112 -1.86101,0.814948 -4.06476,2.422 -6.06207,4.626312 -1.99732,2.204311 -3.39201,4.576644 -4.0201,6.508741 -0.31408,0.966051 -0.43351,1.816503 -0.38287,2.456731 0.0183,0.231465 0.0459,0.431543 0.0957,0.606205 l 11.23078,-5.328234 c 1.47352,-1.847091 2.5439,-3.73159 3.06293,-5.328234 0.31406,-0.966051 0.43351,-1.848408 0.38287,-2.488637 -0.0506,-0.640225 -0.25491,-1.047627 -0.54239,-1.308128 -0.2875,-0.260502 -0.66605,-0.395447 -1.30814,-0.382868 z m -33.88374,3.924389 -26.54546,12.060314 32.5118,0 c -2.54725,-1.403291 -4.64491,-3.085526 -6.03016,-4.817745 -0.75558,-0.944847 -1.28193,-1.929748 -1.56337,-2.903409 -0.28142,-0.973661 -0.29848,-1.979553 0.15954,-2.871504 0.32512,-0.633197 0.84939,-1.11195 1.46765,-1.467656 z m 3.25436,1.276223 c -0.70387,0.01494 -1.33272,0.09431 -1.7867,0.255246 -0.60533,0.214576 -0.93949,0.516325 -1.11671,0.86145 -0.17719,0.345126 -0.21024,0.754975 -0.0319,1.37194 0.17833,0.616966 0.60989,1.40815 1.24432,2.201486 1.26884,1.586669 3.38401,3.299476 6.03015,4.658217 1.20128,0.61683 2.39414,1.076196 3.54153,1.435752 l 7.11495,0 c 0.10329,-0.104967 0.19194,-0.227703 0.25523,-0.350961 0.17543,-0.345406 0.24364,-0.786511 0.0639,-1.403846 -0.17982,-0.617337 -0.60954,-1.37702 -1.24432,-2.169581 -1.26955,-1.585124 -3.41969,-3.301411 -6.06206,-4.658217 -2.64615,-1.35874 -5.24566,-2.094872 -7.27449,-2.201486 -0.25359,-0.01333 -0.4992,-0.0049 -0.73382,0 z m 23.86539,9.029284 -3.15865,1.531468 c 0.40961,-0.114768 0.8432,-0.274575 1.30812,-0.478584 0.59235,-0.259916 1.2057,-0.638553 1.85053,-1.052884 z m -57.20672,3.381992 -61.864961,28.108828 48.177446,0 56.951495,-27.119755 c -0.7913,-0.130805 -1.61293,-0.316248 -2.45673,-0.574299 l -40.80725,0 0,-0.414774 z m 49.51746,0.414774 c -0.682,0.645294 -1.25998,1.263414 -1.49956,1.754807 -0.3314,0.679699 -0.39531,1.237583 -0.31904,1.94624 0.15247,1.41732 1.03794,3.322498 1.40383,5.998252 l -2.01005,0.255245 c -0.31956,-2.336977 -1.22422,-4.063888 -1.43575,-6.030157 -0.0793,-0.737351 -0.0482,-1.520058 0.19144,-2.297202 l -54.750009,26.066869 43.774479,0 60.9397,-27.694054 -40.93489,0 c 0.8564,0.643387 1.59296,1.366642 2.16959,2.169579 1.48994,2.074698 1.96673,4.627527 1.59528,7.434004 l -2.01005,-0.255245 c 0.32203,-2.433308 -0.0899,-4.390812 -1.24433,-5.998252 -0.96994,-1.350605 -2.61997,-2.472197 -4.91346,-3.350086 l -0.95718,0 z m 51.55946,2.073863 -64.06644,29.129811 0,32.447985 64.06644,-29.129812 0,-32.447984 z m 46.19929,13.687499 -44.15734,20.06862 0,34.745187 44.15734,-20.06861 0,-34.745197 z m -214.054634,14.166085 -0.350961,0.159528 0,34.234704 50.793707,0 0,-32.543706 -50.442746,0 0,-1.850526 z m 52.484704,1.850526 0,32.543706 47.22028,0 0,-32.543706 -47.22028,0 z m 115.37064,4.977267 -64.06644,29.129799 0,34.7452 64.06644,-29.12981 0,-34.745189 z m -168.206305,29.608389 0,35.19187 50.793707,0 0,-35.19187 -50.793707,0 z m 52.835665,0 0,35.19187 47.22028,0 0,-35.19187 -47.22028,0 z"
     id="path3063"
     inkscape:connector-curvature="0" />
</svg>
