<?xml version="1.0" encoding="UTF-8" standalone="no"?>
<!-- Created with Inkscape (http://www.inkscape.org/) -->

<svg
   xmlns:dc="http://purl.org/dc/elements/1.1/"
   xmlns:cc="http://creativecommons.org/ns#"
   xmlns:rdf="http://www.w3.org/1999/02/22-rdf-syntax-ns#"
   xmlns:svg="http://www.w3.org/2000/svg"
   xmlns="http://www.w3.org/2000/svg"
   version="1.1"
   width="280"
   height="165"
   id="svg2">
  <defs
     id="defs4" />
  <metadata
     id="metadata7">
    <rdf:RDF>
      <cc:Work
         rdf:about="">
        <dc:format>image/svg+xml</dc:format>
        <dc:type
           rdf:resource="http://purl.org/dc/dcmitype/StillImage" />
        <dc:title></dc:title>
      </cc:Work>
    </rdf:RDF>
  </metadata>
  <g
     transform="translate(0,-887.36218)"
     id="layer1" />
  <path
     d="m -404.07076,-257.28949 c -13.7576,0 -24.91035,11.15274 -24.91035,24.91036 0,11.57155 7.91118,21.25447 18.60492,24.05406 -18.61187,12.50236 -18.6207,49.81334 -31.0601,74.69215 l 74.73107,0 c -12.4394,-24.87881 -12.44823,-62.18979 -31.0601,-74.69215 10.69374,-2.79959 18.60492,-12.48251 18.60492,-24.05406 l 0,-0.0778 c -0.0275,-13.73808 -11.17226,-24.83252 -24.91036,-24.83252 z m -4.47608,61.76989 9.10785,0 -1.82935,9.10786 -5.44914,0 -1.82936,-9.10786 z m 1.75151,10.85937 5.44914,0 3.61979,20.86241 -6.34436,4.55395 -6.34435,-4.55395 3.61978,-20.86241 z"
     id="path2989"
     style="fill:#cccccc;fill-opacity:1;fill-rule:evenodd;stroke:#cccccc;stroke-width:0;stroke-linecap:butt;stroke-linejoin:miter;stroke-miterlimit:4;stroke-opacity:1;stroke-dasharray:none;stroke-dashoffset:0" />
  <path
     d="m -314.12101,-257.28949 c -1.611,0 -3.18378,0.13601 -4.70962,0.42815 8.17371,10.9372 7.19261,27.38167 26.85648,35.84756 1.75852,-3.40385 2.76349,-7.265 2.76349,-11.36535 l 0,-0.0778 c -0.0275,-13.73808 -11.17226,-24.83252 -24.91035,-24.83252 z m -11.36534,2.76349 c -8.0331,4.13401 -13.54501,12.4905 -13.54501,22.14687 0,11.57862 7.90122,21.26123 18.60491,24.05406 -18.61186,12.50236 -18.62069,49.81334 -31.0601,74.69215 l 74.73108,0 c -12.43919,-24.87838 -12.44916,-62.18916 -31.0601,-74.69215 5.41159,-1.41674 10.10644,-4.57936 13.42824,-8.87432 -22.49716,-10.04198 -16.50445,-22.73203 -31.09902,-37.32661 z m 11.71564,52.19498 c 1.71726,0 3.11036,1.39655 3.11379,3.1138 0,1.71969 -1.39408,3.11379 -3.11379,3.11379 -1.7197,0 -3.11378,-1.3941 -3.11378,-3.11379 0,-1.7197 1.39408,-3.1138 3.11378,-3.1138 z m 0,17.43725 c 1.71726,0 3.11036,1.39654 3.11379,3.11379 0,1.7197 -1.39408,3.11381 -3.11379,3.11381 -1.7197,0 -3.11378,-1.39411 -3.11378,-3.11381 0,-1.71968 1.39408,-3.11379 3.11378,-3.11379 z m 0,17.43726 c 1.71726,0 3.11036,1.39653 3.11379,3.11379 0,1.7197 -1.39408,3.11379 -3.11379,3.11379 -1.7197,0 -3.11378,-1.39409 -3.11378,-3.11379 0,-1.7197 1.39408,-3.11379 3.11378,-3.11379 z"
     id="path3765"
     style="fill:#cccccc;fill-opacity:1;fill-rule:evenodd;stroke:#222222;stroke-width:0;stroke-linecap:butt;stroke-linejoin:miter;stroke-miterlimit:4;stroke-opacity:1;stroke-dasharray:none;stroke-dashoffset:0" />
  <path
     d="m -224.17127,-257.28949 c -13.75761,0 -24.91036,11.15274 -24.91036,24.91036 0,11.57154 7.91119,21.25447 18.60493,24.05406 -18.61095,12.50299 -18.62091,49.81377 -31.06011,74.69215 l 74.73107,0 c -12.4394,-24.87881 -12.44822,-62.18979 -31.06009,-74.69215 10.70369,-2.79283 18.60491,-12.47544 18.60491,-24.05406 l 0,-0.0778 c -0.0275,-13.73808 -11.17225,-24.83252 -24.91035,-24.83252 z m -11.40428,62.39267 7.70665,2.56886 c -0.76027,1.8946 -0.27116,2.78389 0,3.85334 l -7.70665,2.56886 0,-8.99106 z m 24.2876,0 0,8.99106 -7.70663,-2.56886 c 0.76025,-1.8946 0.27116,-2.78389 0,-3.85334 l 7.70663,-2.56886 z m -12.22163,1.28443 c 1.77358,0 3.22701,1.45699 3.23055,3.23057 0,1.77608 -1.45447,3.19163 -3.23055,3.19163 -1.7761,0 -3.23057,-1.41555 -3.23057,-3.19163 0,-1.7761 1.45447,-3.23057 3.23057,-3.23057 z"
     id="path3769"
     style="fill:#cccccc;fill-opacity:1;fill-rule:evenodd;stroke:#222222;stroke-width:0;stroke-linecap:butt;stroke-linejoin:miter;stroke-miterlimit:4;stroke-opacity:1;stroke-dashoffset:0" />
  <path
     d="m 30,25 0,30 220,0 0,-30 -220,0 z m 3,2.15625 4.34375,0 L 33,39.34375 33,27.15625 z m 9.625,0 10,0 -9.25,25.875 -10,0 9.25,-25.875 z m 15.0625,0 10,0 -9.21875,25.875 -10,0 9.21875,-25.875 z m 14.90625,0 10,0 -9.21875,25.875 -10,0 9.21875,-25.875 z m 15.09375,0 10,0 -9.21875,25.875 -10,0 9.21875,-25.875 z m 14.8125,0 10,0 -9.21875,25.875 -10,0 9.21875,-25.875 z m 15.09375,0 10,0 -9.21875,25.875 -10,0 9.21875,-25.875 z m 15,0 10,0 -9.25,25.875 -10,0 9.25,-25.875 z m 15.15625,0 10,0 -9.21875,25.875 -10,0 9.21875,-25.875 z m 14.90625,0 10,0 -9.21875,25.875 -10,0 9.21875,-25.875 z m 14.90625,0 10,0 -9.21875,25.875 -10,0 9.21875,-25.875 z m 15,0 10,0 -9.21875,25.875 -10,0 9.21875,-25.875 z m 15,0 10,0 -9.21875,25.875 -10,0 9.21875,-25.875 z m 15,0 10,0 -9.21875,25.875 -10,0 9.21875,-25.875 z m 15.15625,0 10,0 -9.21875,25.875 -10,0 9.21875,-25.875 z m 8.84375,13.65625 0,12.1875 -4.34375,0 4.34375,-12.1875 z"
     id="rect6422"
     style="fill:#cccccc;fill-opacity:1;fill-rule:evenodd;stroke:#cccccc;stroke-width:0;stroke-linecap:round;stroke-linejoin:round;stroke-miterlimit:4;stroke-opacity:1;stroke-dasharray:none;stroke-dashoffset:0" />
  <rect
     width="20"
     height="98.951424"
     x="80.678673"
     y="62.495632"
     transform="matrix(1,0,-0.27977001,0.96006705,0,0)"
     id="rect6489"
     style="fill:#cccccc;fill-opacity:1;fill-rule:evenodd;stroke:#cccccc;stroke-width:0;stroke-linecap:round;stroke-linejoin:round;stroke-miterlimit:4;stroke-opacity:1;stroke-dasharray:none;stroke-dashoffset:0" />
  <rect
     width="20"
     height="98.951424"
     x="-189.22148"
     y="62.495632"
     transform="matrix(-1,0,0.27977001,0.96006705,0,0)"
     id="rect6491"
     style="fill:#cccccc;fill-opacity:1;fill-rule:evenodd;stroke:#cccccc;stroke-width:0;stroke-linecap:round;stroke-linejoin:round;stroke-miterlimit:4;stroke-opacity:1;stroke-dasharray:none;stroke-dashoffset:0" />
</svg>
