<?xml version="1.0" encoding="UTF-8" standalone="no"?>
<!-- Created with Inkscape (http://www.inkscape.org/) -->

<svg
   xmlns:dc="http://purl.org/dc/elements/1.1/"
   xmlns:cc="http://creativecommons.org/ns#"
   xmlns:rdf="http://www.w3.org/1999/02/22-rdf-syntax-ns#"
   xmlns:svg="http://www.w3.org/2000/svg"
   xmlns="http://www.w3.org/2000/svg"
   xmlns:sodipodi="http://sodipodi.sourceforge.net/DTD/sodipodi-0.dtd"
   xmlns:inkscape="http://www.inkscape.org/namespaces/inkscape"
   version="1.1"
   width="280"
   height="165"
   id="svg2"
   inkscape:version="0.48.4 r9939"
   sodipodi:docname="p_discovery.svg">
  <sodipodi:namedview
     pagecolor="#ffffff"
     bordercolor="#666666"
     borderopacity="1"
     objecttolerance="10"
     gridtolerance="10"
     guidetolerance="10"
     inkscape:pageopacity="0"
     inkscape:pageshadow="2"
     inkscape:window-width="1366"
     inkscape:window-height="705"
     id="namedview16"
     showgrid="false"
     inkscape:zoom="1.4445181"
     inkscape:cx="94.841712"
     inkscape:cy="72.52877"
     inkscape:window-x="-8"
     inkscape:window-y="-8"
     inkscape:window-maximized="1"
     inkscape:current-layer="svg2" />
  <defs
     id="defs4" />
  <metadata
     id="metadata7">
    <rdf:RDF>
      <cc:Work
         rdf:about="">
        <dc:format>image/svg+xml</dc:format>
        <dc:type
           rdf:resource="http://purl.org/dc/dcmitype/StillImage" />
        <dc:title />
      </cc:Work>
    </rdf:RDF>
  </metadata>
  <g
     transform="translate(0,-887.36218)"
     id="layer1" />
  <path
     d="m 192.05336,52.655744 c -3.88132,0.172453 -6.97623,2.058193 -7.42179,4.818178 -0.54838,3.396905 3.13445,6.838626 8.22981,7.661201 5.09536,0.822575 9.65658,-1.27164 10.20496,-4.668545 0.53739,-3.393727 -3.14168,-6.809867 -8.22981,-7.631274 -0.95538,-0.154233 -1.88748,-0.219357 -2.78317,-0.17956 z m -7.60135,6.1948 c -18.38261,0.285783 -35.20809,10.517311 -44.74022,26.395232 -21.21042,2.060151 -35.88192,8.609559 -37.46806,18.434764 -2.623743,16.25254 31.49859,35.28044 76.19304,42.49573 44.69446,7.2153 83.05601,-0.11731 85.67976,-16.36984 l 0,-0.0599 c 1.47588,-9.47418 -9.50882,-19.88264 -27.77185,-28.34046 C 232.4917,83.317642 219.9731,68.209777 202.797,61.93298 c -0.008,0.141448 -0.008,0.277406 -0.0299,0.418972 -0.5484,3.396902 -5.13953,5.521043 -10.23488,4.698471 -5.09535,-0.822574 -8.74827,-4.264298 -8.19988,-7.661201 0.029,-0.182099 0.0677,-0.364403 0.1197,-0.538678 z m -3.05251,5.267076 0.56861,0.77809 c -12.804,9.18257 -19.81987,18.557241 -23.64199,25.617142 -3.82213,7.059901 -4.45906,11.761138 -4.45906,11.761138 l -0.92772,-0.1197 c 0,0 0.66177,-4.940409 4.54884,-12.120263 3.88706,-7.179855 10.99131,-16.650636 23.91132,-25.916407 z m 18.43477,5.117443 c 5.25258,6.842714 7.20683,17.610176 7.90061,26.664571 0.69373,9.054396 0.0898,16.429686 0.0898,16.429686 l -0.95765,-0.0898 c 0,0 0.59779,-7.30685 -0.0898,-16.280053 -0.68756,-8.973201 -2.69606,-19.579662 -7.72105,-26.125893 l 0.77809,-0.598531 z m -62.9655,30.225832 c 13.34135,6.611955 29.3767,11.791525 46.98471,14.634095 17.56955,2.83637 34.38818,2.96141 49.1095,0.89779 -0.26446,0.87334 -0.50472,1.72182 -0.80802,2.57369 -14.54675,2.13933 -31.28778,2.07094 -48.75038,-0.74817 -17.49641,-2.82455 -33.38651,-8.03749 -46.53581,-14.66401 -0.0195,-0.90276 -0.0266,-1.7829 0,-2.693395 z m -2.09486,5.356855 c 13.6711,6.77538 30.10868,12.08039 48.15185,14.99321 18.0038,2.90646 35.25135,3.04234 50.33648,0.92772 -0.27098,0.89493 -0.52714,1.79055 -0.83794,2.66347 -14.90627,2.19221 -32.05326,2.08074 -49.94744,-0.80802 -17.92883,-2.89436 -34.22865,-8.2029 -47.70295,-14.99321 -0.0201,-0.92507 -0.0272,-1.85018 0,-2.78317 z m -2.06493,5.35686 c 14.00082,6.93878 30.81068,12.36925 49.28905,15.35233 18.43803,2.97654 36.11449,3.12327 51.56348,0.95765 -0.27753,0.91651 -0.54959,1.82934 -0.86787,2.72331 -15.26581,2.24507 -32.84867,2.15043 -51.17443,-0.80801 -18.36127,-2.96417 -35.04088,-8.42817 -48.84016,-15.38226 -0.0207,-0.94739 0.002,-1.88751 0.0299,-2.84302 z"
     id="path6509"
     style="fill:#cccccc;fill-opacity:1;fill-rule:evenodd;stroke:#cccccc;stroke-width:0;stroke-linecap:round;stroke-linejoin:round;stroke-miterlimit:4;stroke-opacity:1;stroke-dashoffset:0" />
  <path
     style="fill:#cccccc;stroke:#000000;stroke-width:0;stroke-linecap:butt;stroke-linejoin:miter;stroke-miterlimit:4;stroke-opacity:1;stroke-dasharray:none"
     d="M 70.53125 5.09375 L 65.375 46.53125 A 23.858675 23.184929 0 0 0 55.3125 51.21875 L 41.5625 40.53125 L 52.1875 54.21875 A 23.858675 23.184929 0 0 0 47 64.40625 L 6.09375 69.53125 L 47.15625 74.6875 A 23.858675 23.184929 0 0 0 52.4375 84.53125 L 41.5625 98.53125 L 55.71875 87.53125 A 23.858675 23.184929 0 0 0 65.28125 91.84375 L 70.53125 133.96875 L 75.8125 91.75 A 23.858675 23.184929 0 0 0 85.125 87.3125 L 99.53125 98.53125 L 88.40625 84.25 A 23.858675 23.184929 0 0 0 93.46875 74.71875 L 134.96875 69.53125 L 93.625 64.34375 A 23.858675 23.184929 0 0 0 88.71875 54.4375 L 99.53125 40.53125 L 85.5625 51.375 A 23.858675 23.184929 0 0 0 75.71875 46.65625 L 70.53125 5.09375 z M 70.0625 65.0625 A 4.1955379 4.1955379 0 0 1 74.3125 69.25 A 4.1955379 4.1955379 0 1 1 70.0625 65.0625 z "
     id="path6555" />
</svg>
