<?xml version="1.0" encoding="UTF-8" standalone="no"?>
<!-- Created with Inkscape (http://www.inkscape.org/) -->

<svg
   xmlns:dc="http://purl.org/dc/elements/1.1/"
   xmlns:cc="http://creativecommons.org/ns#"
   xmlns:rdf="http://www.w3.org/1999/02/22-rdf-syntax-ns#"
   xmlns:svg="http://www.w3.org/2000/svg"
   xmlns="http://www.w3.org/2000/svg"
   xmlns:sodipodi="http://sodipodi.sourceforge.net/DTD/sodipodi-0.dtd"
   xmlns:inkscape="http://www.inkscape.org/namespaces/inkscape"
   width="280"
   height="165"
   id="svg2"
   version="1.1"
   inkscape:version="0.48.4 r9939"
   sodipodi:docname="p_launch.svg"
   inkscape:export-filename="C:\xampp\htdocs\neon_40\content\themes\a11y\assets\css\images\p_launch.png"
   inkscape:export-xdpi="90"
   inkscape:export-ydpi="90">
  <defs
     id="defs4" />
  <sodipodi:namedview
     id="base"
     pagecolor="#ffffff"
     bordercolor="#666666"
     borderopacity="1.0"
     inkscape:pageopacity="0.0"
     inkscape:pageshadow="2"
     inkscape:zoom="2.8175486"
     inkscape:cx="142.71863"
     inkscape:cy="82.072643"
     inkscape:document-units="px"
     inkscape:current-layer="svg2"
     showgrid="true"
     inkscape:window-width="1366"
     inkscape:window-height="705"
     inkscape:window-x="-8"
     inkscape:window-y="-8"
     inkscape:window-maximized="1">
    <inkscape:grid
       type="xygrid"
       id="grid2985"
       empspacing="5"
       visible="true"
       enabled="true"
       snapvisiblegridlinesonly="true" />
  </sodipodi:namedview>
  <metadata
     id="metadata7">
    <rdf:RDF>
      <cc:Work
         rdf:about="">
        <dc:format>image/svg+xml</dc:format>
        <dc:type
           rdf:resource="http://purl.org/dc/dcmitype/StillImage" />
        <dc:title></dc:title>
      </cc:Work>
    </rdf:RDF>
  </metadata>
  <g
     inkscape:label="Layer 1"
     inkscape:groupmode="layer"
     id="layer1"
     transform="translate(0,-887.36218)" />
  <path
     inkscape:connector-curvature="0"
     d="m -404.07076,-257.28949 c -13.7576,0 -24.91035,11.15274 -24.91035,24.91036 0,11.57155 7.91118,21.25447 18.60492,24.05406 -18.61187,12.50236 -18.6207,49.81334 -31.0601,74.69215 l 74.73107,0 c -12.4394,-24.87881 -12.44823,-62.18979 -31.0601,-74.69215 10.69374,-2.79959 18.60492,-12.48251 18.60492,-24.05406 l 0,-0.0778 c -0.0275,-13.73808 -11.17226,-24.83252 -24.91036,-24.83252 z m -4.47608,61.76989 9.10785,0 -1.82935,9.10786 -5.44914,0 -1.82936,-9.10786 z m 1.75151,10.85937 5.44914,0 3.61979,20.86241 -6.34436,4.55395 -6.34435,-4.55395 3.61978,-20.86241 z"
     id="path2989"
     style="fill:#cccccc;fill-opacity:1;fill-rule:evenodd;stroke:#cccccc;stroke-width:0;stroke-linecap:butt;stroke-linejoin:miter;stroke-miterlimit:4;stroke-opacity:1;stroke-dasharray:none;stroke-dashoffset:0" />
  <path
     inkscape:connector-curvature="0"
     d="m -314.12101,-257.28949 c -1.611,0 -3.18378,0.13601 -4.70962,0.42815 8.17371,10.9372 7.19261,27.38167 26.85648,35.84756 1.75852,-3.40385 2.76349,-7.265 2.76349,-11.36535 l 0,-0.0778 c -0.0275,-13.73808 -11.17226,-24.83252 -24.91035,-24.83252 z m -11.36534,2.76349 c -8.0331,4.13401 -13.54501,12.4905 -13.54501,22.14687 0,11.57862 7.90122,21.26123 18.60491,24.05406 -18.61186,12.50236 -18.62069,49.81334 -31.0601,74.69215 l 74.73108,0 c -12.43919,-24.87838 -12.44916,-62.18916 -31.0601,-74.69215 5.41159,-1.41674 10.10644,-4.57936 13.42824,-8.87432 -22.49716,-10.04198 -16.50445,-22.73203 -31.09902,-37.32661 z m 11.71564,52.19498 c 1.71726,0 3.11036,1.39655 3.11379,3.1138 0,1.71969 -1.39408,3.11379 -3.11379,3.11379 -1.7197,0 -3.11378,-1.3941 -3.11378,-3.11379 0,-1.7197 1.39408,-3.1138 3.11378,-3.1138 z m 0,17.43725 c 1.71726,0 3.11036,1.39654 3.11379,3.11379 0,1.7197 -1.39408,3.11381 -3.11379,3.11381 -1.7197,0 -3.11378,-1.39411 -3.11378,-3.11381 0,-1.71968 1.39408,-3.11379 3.11378,-3.11379 z m 0,17.43726 c 1.71726,0 3.11036,1.39653 3.11379,3.11379 0,1.7197 -1.39408,3.11379 -3.11379,3.11379 -1.7197,0 -3.11378,-1.39409 -3.11378,-3.11379 0,-1.7197 1.39408,-3.11379 3.11378,-3.11379 z"
     id="path3765"
     style="fill:#cccccc;fill-opacity:1;fill-rule:evenodd;stroke:#222222;stroke-width:0;stroke-linecap:butt;stroke-linejoin:miter;stroke-miterlimit:4;stroke-opacity:1;stroke-dasharray:none;stroke-dashoffset:0" />
  <path
     inkscape:connector-curvature="0"
     d="m -224.17127,-257.28949 c -13.75761,0 -24.91036,11.15274 -24.91036,24.91036 0,11.57154 7.91119,21.25447 18.60493,24.05406 -18.61095,12.50299 -18.62091,49.81377 -31.06011,74.69215 l 74.73107,0 c -12.4394,-24.87881 -12.44822,-62.18979 -31.06009,-74.69215 10.70369,-2.79283 18.60491,-12.47544 18.60491,-24.05406 l 0,-0.0778 c -0.0275,-13.73808 -11.17225,-24.83252 -24.91035,-24.83252 z m -11.40428,62.39267 7.70665,2.56886 c -0.76027,1.8946 -0.27116,2.78389 0,3.85334 l -7.70665,2.56886 0,-8.99106 z m 24.2876,0 0,8.99106 -7.70663,-2.56886 c 0.76025,-1.8946 0.27116,-2.78389 0,-3.85334 l 7.70663,-2.56886 z m -12.22163,1.28443 c 1.77358,0 3.22701,1.45699 3.23055,3.23057 0,1.77608 -1.45447,3.19163 -3.23055,3.19163 -1.7761,0 -3.23057,-1.41555 -3.23057,-3.19163 0,-1.7761 1.45447,-3.23057 3.23057,-3.23057 z"
     id="path3769"
     style="fill:#cccccc;fill-opacity:1;fill-rule:evenodd;stroke:#222222;stroke-width:0;stroke-linecap:butt;stroke-linejoin:miter;stroke-miterlimit:4;stroke-opacity:1;stroke-dashoffset:0" />
  <path
     style="fill:#cccccc;fill-opacity:1;fill-rule:evenodd;stroke:#b3b3b3;stroke-width:0;stroke-linecap:round;stroke-linejoin:round;stroke-miterlimit:4;stroke-opacity:1;stroke-dashoffset:0"
     d="m 258.33344,30.680286 c -8.86155,-15.348652 -35.83412,-14.792744 -55.82924,4.9395 -11.69993,11.546119 -28.5387,32.65311 -33.69087,38.556909 l 8.27289,14.329091 c 7.61986,-1.68209 33.56974,-6.954787 50.2367,-9.898704 l 0.0896,-0.05163 c 27.00202,-7.401512 39.78708,-32.518542 30.92096,-47.8751 z m -10.71937,7.434088 c 5.67234,9.824763 2.33214,22.38968 -7.48129,28.081678 l -0.0384,0.02212 c -9.8387,5.680384 -22.41806,2.29894 -28.09844,-7.539793 -5.68039,-9.838698 -2.31173,-22.410685 7.52697,-28.091064 9.83871,-5.680385 22.41069,-2.311729 28.09107,7.526974 z"
     id="path5200"
     inkscape:connector-curvature="0" />
  <path
     style="fill:#cccccc;fill-opacity:1;stroke:#000000;stroke-width:0;stroke-linecap:butt;stroke-linejoin:miter;stroke-miterlimit:4;stroke-opacity:1;stroke-dasharray:none"
     d="m 166.76631,75.358548 -7.87139,10.003234 3.54554,6.141046 12.59875,-1.815189 z"
     id="path5206"
     inkscape:connector-curvature="0" />
  <path
     style="fill:#cccccc;fill-opacity:1;stroke:#000000;stroke-width:0;stroke-linecap:butt;stroke-linejoin:miter;stroke-miterlimit:4;stroke-opacity:1;stroke-dasharray:none"
     d="m 167.63148,72.129688 10.78354,-14.413961 c -8.57952,-9.065953 -30.16364,-6.131166 -43.70548,-4.789487 11.1851,9.918394 27.67268,7.553619 32.92194,19.203448 z"
     id="path5716"
     inkscape:connector-curvature="0"
     sodipodi:nodetypes="cccc" />
  <path
     sodipodi:nodetypes="cccc"
     inkscape:connector-curvature="0"
     id="path5718"
     d="m 178.00796,90.102308 17.87464,-2.131863 c 3.56157,11.963065 -10.69382,27.591575 -18.62667,38.648305 -2.99704,-14.64578 8.21647,-26.14557 0.75203,-36.516442 z"
     style="fill:#cccccc;fill-opacity:1;stroke:#000000;stroke-width:0;stroke-linecap:butt;stroke-linejoin:miter;stroke-miterlimit:4;stroke-opacity:1;stroke-dasharray:none" />
  <path
     style="fill:none;stroke:#cccccc;stroke-width:3.79999995;stroke-linecap:butt;stroke-linejoin:miter;stroke-miterlimit:4;stroke-opacity:1;stroke-dasharray:3.79999995,3.79999995;stroke-dashoffset:0"
     d="M 155,92 30,157"
     id="path5758"
     inkscape:connector-curvature="0" />
  <path
     sodipodi:type="arc"
     style="fill:#cccccc;fill-opacity:1;fill-rule:evenodd;stroke:#cccccc;stroke-width:0;stroke-linecap:round;stroke-linejoin:round;stroke-miterlimit:4;stroke-opacity:1;stroke-dasharray:none;stroke-dashoffset:0"
     id="path5760"
     sodipodi:cx="52.5"
     sodipodi:cy="27.5"
     sodipodi:rx="12.5"
     sodipodi:ry="12.5"
     d="m 65,27.5 a 12.5,12.5 0 1 1 -2.5e-5,-0.02508"
     sodipodi:start="0"
     sodipodi:end="6.2811789"
     sodipodi:open="true"
     transform="translate(168.64865,27.598455)" />
  <path
     style="fill:#cccccc;stroke:#cccccc;stroke-width:2;stroke-linecap:butt;stroke-linejoin:miter;stroke-opacity:1;stroke-miterlimit:4;stroke-dasharray:none"
     d="M 110,105 60,60"
     id="path5762"
     inkscape:connector-curvature="0" />
  <path
     style="fill:none;stroke:#cccccc;stroke-width:2;stroke-linecap:butt;stroke-linejoin:miter;stroke-opacity:1;stroke-miterlimit:4;stroke-dasharray:none"
     d="m 35,45 55,0"
     id="path5766"
     inkscape:connector-curvature="0" />
  <path
     style="fill:none;stroke:#cccccc;stroke-width:2;stroke-linecap:butt;stroke-linejoin:miter;stroke-opacity:1;stroke-miterlimit:4;stroke-dasharray:none"
     d="m 35,50 45,0"
     id="path5768"
     inkscape:connector-curvature="0" />
  <path
     style="fill:none;stroke:#cccccc;stroke-width:2;stroke-linecap:butt;stroke-linejoin:miter;stroke-opacity:1;stroke-miterlimit:4;stroke-dasharray:none"
     d="m 35,55 30,0"
     id="path5770"
     inkscape:connector-curvature="0" />
  <path
     inkscape:connector-curvature="0"
     id="path5772"
     d="M 234.90658,127.51557 218.64856,84.844292"
     style="fill:#cccccc;stroke:#cccccc;stroke-width:2;stroke-linecap:butt;stroke-linejoin:miter;stroke-miterlimit:4;stroke-opacity:1;stroke-dasharray:none"
     sodipodi:nodetypes="cc" />
  <path
     inkscape:connector-curvature="0"
     id="path5774"
     d="m 207.13545,133.72962 55,0"
     style="fill:none;stroke:#cccccc;stroke-width:2;stroke-linecap:butt;stroke-linejoin:miter;stroke-miterlimit:4;stroke-opacity:1;stroke-dasharray:none" />
  <path
     inkscape:connector-curvature="0"
     id="path5776"
     d="m 207.13545,138.72962 45,0"
     style="fill:none;stroke:#cccccc;stroke-width:2;stroke-linecap:butt;stroke-linejoin:miter;stroke-miterlimit:4;stroke-opacity:1;stroke-dasharray:none" />
  <path
     inkscape:connector-curvature="0"
     id="path5778"
     d="m 207.13545,143.72962 30,0"
     style="fill:none;stroke:#cccccc;stroke-width:2;stroke-linecap:butt;stroke-linejoin:miter;stroke-miterlimit:4;stroke-opacity:1;stroke-dasharray:none" />
</svg>
