<?xml version="1.0" encoding="UTF-8" standalone="no"?>
<!-- Created with Inkscape (http://www.inkscape.org/) -->

<svg
   xmlns:dc="http://purl.org/dc/elements/1.1/"
   xmlns:cc="http://creativecommons.org/ns#"
   xmlns:rdf="http://www.w3.org/1999/02/22-rdf-syntax-ns#"
   xmlns:svg="http://www.w3.org/2000/svg"
   xmlns="http://www.w3.org/2000/svg"
   xmlns:sodipodi="http://sodipodi.sourceforge.net/DTD/sodipodi-0.dtd"
   xmlns:inkscape="http://www.inkscape.org/namespaces/inkscape"
   width="280"
   height="165"
   id="svg2"
   version="1.1"
   inkscape:version="0.48.4 r9939"
   sodipodi:docname="p_personas.svg"
   inkscape:export-filename="C:\artwork\neontribe_ghost\p_prioritization.png"
   inkscape:export-xdpi="90"
   inkscape:export-ydpi="90">
  <defs
     id="defs4" />
  <sodipodi:namedview
     id="base"
     pagecolor="#ffffff"
     bordercolor="#666666"
     borderopacity="1.0"
     inkscape:pageopacity="0.0"
     inkscape:pageshadow="2"
     inkscape:zoom="1.9923077"
     inkscape:cx="140"
     inkscape:cy="65"
     inkscape:document-units="px"
     inkscape:current-layer="svg2"
     showgrid="true"
     inkscape:window-width="1366"
     inkscape:window-height="705"
     inkscape:window-x="-8"
     inkscape:window-y="-8"
     inkscape:window-maximized="1">
    <inkscape:grid
       type="xygrid"
       id="grid2985"
       empspacing="5"
       visible="true"
       enabled="true"
       snapvisiblegridlinesonly="true" />
  </sodipodi:namedview>
  <metadata
     id="metadata7">
    <rdf:RDF>
      <cc:Work
         rdf:about="">
        <dc:format>image/svg+xml</dc:format>
        <dc:type
           rdf:resource="http://purl.org/dc/dcmitype/StillImage" />
        <dc:title></dc:title>
      </cc:Work>
    </rdf:RDF>
  </metadata>
  <g
     inkscape:label="Layer 1"
     inkscape:groupmode="layer"
     id="layer1"
     transform="translate(0,-887.36218)" />
  <path
     inkscape:connector-curvature="0"
     d="m 49.674415,35.837922 c -13.757605,0 -24.910356,11.15274 -24.910356,24.910356 0,11.571557 7.911179,21.254475 18.604922,24.054062 -18.611873,12.502361 -18.620703,49.81334 -31.060102,74.69215 l 74.73107,0 C 74.600552,134.61568 74.59172,97.304701 55.979849,84.80234 66.67359,82.002753 74.584771,72.319835 74.584771,60.748278 l 0,-0.07784 C 74.557245,46.932358 63.412513,35.837922 49.674415,35.837922 z m -4.476081,61.769894 9.107849,0 -1.829354,9.107854 -5.44914,0 -1.829355,-9.107854 z m 1.75151,10.859364 5.44914,0 3.619787,20.86241 -6.344356,4.55395 -6.344356,-4.55395 3.619785,-20.86241 z"
     id="path2989"
     style="fill:#cccccc;fill-opacity:1;fill-rule:evenodd;stroke:#cccccc;stroke-width:0;stroke-linecap:butt;stroke-linejoin:miter;stroke-miterlimit:4;stroke-opacity:1;stroke-dasharray:none;stroke-dashoffset:0" />
  <path
     inkscape:connector-curvature="0"
     d="m 139.62416,35.837922 c -1.611,0 -3.18378,0.13601 -4.70962,0.428146 8.17371,10.937204 7.19261,27.381675 26.85648,35.84756 1.75852,-3.403851 2.76349,-7.264993 2.76349,-11.36535 l 0,-0.07784 C 164.50704,46.93236 153.36225,35.837924 139.62416,35.837924 z m -11.36534,2.763491 c -8.0331,4.134011 -13.54501,12.490503 -13.54501,22.146865 0,11.57862 7.90122,21.261238 18.60491,24.054062 -18.61186,12.502361 -18.62069,49.81334 -31.0601,74.69215 l 74.73108,0 C 164.55051,134.61611 164.54054,97.305334 145.9296,84.80234 151.34119,83.385602 156.03604,80.222982 159.35784,75.928025 136.86068,65.886039 142.85339,53.195993 128.25882,38.601413 z m 11.71564,52.19498 c 1.71726,0 3.11036,1.396544 3.11379,3.113796 0,1.719696 -1.39408,3.113792 -3.11379,3.113792 -1.7197,0 -3.11378,-1.394096 -3.11378,-3.113792 0,-1.719696 1.39408,-3.113796 3.11378,-3.113796 z m 0,17.437247 c 1.71726,0 3.11036,1.39654 3.11379,3.11379 0,1.7197 -1.39408,3.11381 -3.11379,3.11381 -1.7197,0 -3.11378,-1.39411 -3.11378,-3.11381 0,-1.71968 1.39408,-3.11379 3.11378,-3.11379 z m 0,17.43726 c 1.71726,0 3.11036,1.39653 3.11379,3.11379 0,1.7197 -1.39408,3.11379 -3.11379,3.11379 -1.7197,0 -3.11378,-1.39409 -3.11378,-3.11379 0,-1.7197 1.39408,-3.11379 3.11378,-3.11379 z"
     id="path3765"
     style="fill:#cccccc;fill-opacity:1;fill-rule:evenodd;stroke:#222222;stroke-width:0;stroke-linecap:butt;stroke-linejoin:miter;stroke-miterlimit:4;stroke-opacity:1;stroke-dasharray:none;stroke-dashoffset:0" />
  <path
     inkscape:connector-curvature="0"
     d="m 229.5739,35.837922 c -13.75761,0 -24.91036,11.15274 -24.91036,24.910356 0,11.571545 7.91119,21.254475 18.60493,24.054062 -18.61095,12.502994 -18.62091,49.81377 -31.06011,74.69215 l 74.73107,0 c -12.4394,-24.87881 -12.44822,-62.189789 -31.06009,-74.69215 10.70369,-2.792824 18.60491,-12.475442 18.60491,-24.054062 l 0,-0.07784 C 254.45678,46.93236 243.312,35.837924 229.5739,35.837924 z m -11.40428,62.392668 7.70665,2.56886 c -0.76027,1.8946 -0.27116,2.78389 0,3.85334 l -7.70665,2.56886 0,-8.99106 z m 24.2876,0 0,8.99106 -7.70663,-2.56886 c 0.76025,-1.8946 0.27116,-2.78389 0,-3.85334 l 7.70663,-2.56886 z m -12.22163,1.28443 c 1.77358,0 3.22701,1.45699 3.23055,3.23057 0,1.77608 -1.45447,3.19163 -3.23055,3.19163 -1.7761,0 -3.23057,-1.41555 -3.23057,-3.19163 0,-1.7761 1.45447,-3.23057 3.23057,-3.23057 z"
     id="path3769"
     style="fill:#cccccc;fill-opacity:1;fill-rule:evenodd;stroke:#222222;stroke-width:0;stroke-linecap:butt;stroke-linejoin:miter;stroke-miterlimit:4;stroke-opacity:1;stroke-dashoffset:0" />
</svg>
