<?xml version="1.0" encoding="UTF-8" standalone="no"?>
<!-- Created with Inkscape (http://www.inkscape.org/) -->

<svg
   xmlns:dc="http://purl.org/dc/elements/1.1/"
   xmlns:cc="http://creativecommons.org/ns#"
   xmlns:rdf="http://www.w3.org/1999/02/22-rdf-syntax-ns#"
   xmlns:svg="http://www.w3.org/2000/svg"
   xmlns="http://www.w3.org/2000/svg"
   version="1.1"
   width="280"
   height="165"
   id="svg2">
  <defs
     id="defs4" />
  <metadata
     id="metadata7">
    <rdf:RDF>
      <cc:Work
         rdf:about="">
        <dc:format>image/svg+xml</dc:format>
        <dc:type
           rdf:resource="http://purl.org/dc/dcmitype/StillImage" />
        <dc:title></dc:title>
      </cc:Work>
    </rdf:RDF>
  </metadata>
  <g
     transform="translate(0,-887.36218)"
     id="layer1" />
  <path
     d="m 44.48225,23.583339 c -4.023879,0 -7.318341,3.294464 -7.318341,7.318341 0,4.023876 3.294462,7.224515 7.318341,7.224515 4.023878,0 7.318341,-3.200639 7.318341,-7.224515 l 0,-0.09383 c -0.008,-4.018159 -3.300172,-7.224511 -7.318341,-7.224511 z"
     id="path4032"
     style="fill:#cccccc;fill-opacity:1;fill-rule:evenodd;stroke:#cccccc;stroke-width:0;stroke-linecap:butt;stroke-linejoin:miter;stroke-miterlimit:4;stroke-opacity:1;stroke-dashoffset:0" />
  <path
     d="m 65.968149,26.86721 0,8.725714 174.889601,0 0,-8.725714 -174.889601,0 z"
     id="path4030"
     style="fill:#cccccc;fill-opacity:1;fill-rule:evenodd;stroke:#cccccc;stroke-width:0;stroke-linecap:butt;stroke-linejoin:miter;stroke-miterlimit:4;stroke-opacity:1;stroke-dashoffset:0" />
  <path
     d="m 44.10695,52.856702 c -4.023877,0 -7.318341,3.294464 -7.318341,7.318343 0,4.023871 3.294464,7.318336 7.318341,7.318336 4.023878,0 7.318341,-3.294465 7.318341,-7.318336 -0.008,-4.018166 -3.30017,-7.318343 -7.318341,-7.318343 z"
     id="path4028"
     style="fill:#cccccc;fill-opacity:1;fill-rule:evenodd;stroke:#cccccc;stroke-width:0;stroke-linecap:butt;stroke-linejoin:miter;stroke-miterlimit:4;stroke-opacity:1;stroke-dashoffset:0" />
  <path
     d="m 65.968149,55.952925 0,8.819534 174.889601,0 0,-8.819534 -174.889601,0 z"
     id="path4026"
     style="fill:#cccccc;fill-opacity:1;fill-rule:evenodd;stroke:#cccccc;stroke-width:0;stroke-linecap:butt;stroke-linejoin:miter;stroke-miterlimit:4;stroke-opacity:1;stroke-dashoffset:0" />
  <path
     d="m 44.48225,81.84859 c -4.023879,0 -7.318341,3.294466 -7.318341,7.318345 0,4.023879 3.294462,7.224518 7.318341,7.224518 4.023878,0 7.318341,-3.200639 7.318341,-7.224518 l 0,-0.09381 c -0.008,-4.018154 -3.300172,-7.224518 -7.318341,-7.224518 z"
     id="path4024"
     style="fill:#cccccc;fill-opacity:1;fill-rule:evenodd;stroke:#cccccc;stroke-width:0;stroke-linecap:butt;stroke-linejoin:miter;stroke-miterlimit:4;stroke-opacity:1;stroke-dashoffset:0" />
  <path
     d="m 65.968149,85.132456 0,8.725727 174.889601,0 0,-8.72571 -174.889601,0 z"
     id="path4022"
     style="fill:#cccccc;fill-opacity:1;fill-rule:evenodd;stroke:#cccccc;stroke-width:0;stroke-linecap:butt;stroke-linejoin:miter;stroke-miterlimit:4;stroke-opacity:1;stroke-dashoffset:0" />
  <path
     d="m 44.48225,111.12195 c -4.023879,0 -7.318341,3.29448 -7.318341,7.31835 0,4.02386 3.294462,7.31834 7.318341,7.31834 4.023878,0 7.318341,-3.29448 7.318341,-7.31834 -0.008,-4.01817 -3.300172,-7.31835 -7.318341,-7.31835 z"
     id="path4020"
     style="fill:#cccccc;fill-opacity:1;fill-rule:evenodd;stroke:#cccccc;stroke-width:0;stroke-linecap:butt;stroke-linejoin:miter;stroke-miterlimit:4;stroke-opacity:1;stroke-dashoffset:0" />
  <path
     d="m 65.968149,114.96878 0,8.72571 174.889601,0 0,-8.72571 -174.889601,0 z"
     id="path4018"
     style="fill:#cccccc;fill-opacity:1;fill-rule:evenodd;stroke:#cccccc;stroke-width:0;stroke-linecap:butt;stroke-linejoin:miter;stroke-miterlimit:4;stroke-opacity:1;stroke-dashoffset:0" />
  <path
     d="m 44.48225,140.30149 c -4.023879,0 -7.318341,3.29448 -7.318341,7.31834 0,4.02386 3.294462,7.22452 7.318341,7.22452 4.023878,0 7.318341,-3.20066 7.318341,-7.22452 -0.008,-4.01817 -3.300172,-7.31834 -7.318341,-7.31834 z"
     id="path4016"
     style="fill:#cccccc;fill-opacity:1;fill-rule:evenodd;stroke:#cccccc;stroke-width:0;stroke-linecap:butt;stroke-linejoin:miter;stroke-miterlimit:4;stroke-opacity:1;stroke-dashoffset:0" />
  <path
     d="m 65.968149,144.14831 0,8.72571 174.889601,0 0,-8.72571 -174.889601,0 z"
     id="path3903"
     style="fill:#cccccc;fill-opacity:1;fill-rule:evenodd;stroke:#cccccc;stroke-width:0;stroke-linecap:butt;stroke-linejoin:miter;stroke-miterlimit:4;stroke-opacity:1;stroke-dashoffset:0" />
</svg>
