<?xml version="1.0" encoding="UTF-8" standalone="no"?>
<!-- Created with Inkscape (http://www.inkscape.org/) -->

<svg
   xmlns:dc="http://purl.org/dc/elements/1.1/"
   xmlns:cc="http://creativecommons.org/ns#"
   xmlns:rdf="http://www.w3.org/1999/02/22-rdf-syntax-ns#"
   xmlns:svg="http://www.w3.org/2000/svg"
   xmlns="http://www.w3.org/2000/svg"
   version="1.1"
   width="280"
   height="165"
   id="svg2">
  <defs
     id="defs4" />
  <metadata
     id="metadata7">
    <rdf:RDF>
      <cc:Work
         rdf:about="">
        <dc:format>image/svg+xml</dc:format>
        <dc:type
           rdf:resource="http://purl.org/dc/dcmitype/StillImage" />
        <dc:title></dc:title>
      </cc:Work>
    </rdf:RDF>
  </metadata>
  <g
     transform="translate(0,-887.36218)"
     id="layer1" />
  <path
     d="m 93.950641,73.487046 -1.78726,1.787259 c 3.30838,3.308375 6.67029,4.900349 9.911159,5.07744 3.13074,0.171073 6.04073,-1.004738 8.61134,-2.883986 2.74682,-0.892089 5.52644,0.0022 8.65196,1.015488 3.14477,1.01954 6.66752,2.129329 10.35798,0.690532 0.013,-0.0048 0.028,0.0047 0.0406,0 3.33818,-1.241663 6.8028,-0.289021 10.60169,0.731151 3.81331,1.024045 7.98286,2.094205 12.22648,0.121859 l -1.05611,-2.315313 c -3.35131,1.557622 -6.73966,0.771596 -10.52046,-0.243717 -3.7808,-1.015313 -7.91871,-2.258942 -12.18585,-0.649912 -2.77981,1.096896 -5.55811,0.285049 -8.69258,-0.731152 -3.13448,-1.0162 -6.60576,-2.268364 -10.31736,-1.015488 l -0.2031,0.08124 -0.16248,0.121859 c -2.30769,1.748452 -4.71532,2.696455 -7.23027,2.55903 -2.514949,-0.137426 -5.245599,-1.346127 -8.245769,-4.346289 z m 0,-13.404444 -1.78726,1.787259 c 3.30838,3.308377 6.67029,4.94097 9.911159,5.118061 3.10078,0.169436 5.97755,-1.036414 8.5301,-2.883987 2.77262,-0.935918 5.57744,-0.04824 8.7332,0.974869 3.14477,1.01954 6.66752,2.12933 10.35798,0.690532 0.013,-0.0048 0.028,0.0047 0.0406,0 3.33818,-1.241664 6.8028,-0.289021 10.60169,0.731151 3.73945,1.00421 7.82347,2.022947 11.98276,0.203098 3.25736,-0.77272 6.80755,-0.22328 10.52046,0.162478 3.66258,0.380529 7.5531,0.560696 11.29223,-1.259205 0.0117,-0.0057 0.0289,0.0057 0.0405,0 2.73474,-0.90521 5.50399,0.142858 8.65196,1.218585 3.16331,1.080967 6.77452,2.127074 10.47984,0.203098 l 0.0405,0 0.0406,-0.04062 c 2.51178,-1.501683 5.07863,-1.719453 7.88018,-1.624781 2.80156,0.09467 5.78737,0.574378 8.89568,0.365575 l 0.0812,-0.04062 0.12179,0 c 2.5516,-0.60602 5.07584,-1.681898 7.43338,-2.193455 2.35753,-0.511556 4.41807,-0.510125 6.4585,0.771771 l 0.0405,0 0,0.04062 c 2.46373,1.37868 5.81705,1.300585 8.65196,1.502922 1.41746,0.101166 2.70535,0.264062 3.57452,0.528054 0.86917,0.263992 1.11951,0.543331 1.21859,0.85301 l 0.28433,-0.08124 0.77177,1.259205 0.8124,-0.528053 0.85301,-0.487435 -0.28434,-0.934249 c -0.43521,-1.360303 -1.6765,-2.139322 -2.92461,-2.51841 -1.2481,-0.379089 -2.67709,-0.504653 -4.14319,-0.609293 -2.91475,-0.208036 -6.0351,-0.368777 -7.51461,-1.177966 -0.0117,-0.0075 -0.0287,0.0074 -0.0406,0 -2.71937,-1.691933 -5.65933,-1.63496 -8.327,-1.056108 -2.66589,0.578466 -5.14932,1.61534 -7.39275,2.152835 -0.013,7.48e-4 -0.0278,-7.22e-4 -0.0406,0 -2.67219,0.150466 -5.50612,-0.306752 -8.44886,-0.406195 -2.98581,-0.100893 -6.14119,0.202719 -9.18001,1.990356 -0.028,0.01647 -0.0533,0.02389 -0.0812,0.04062 -2.7501,1.38461 -5.384,0.641131 -8.44886,-0.406195 -3.09674,-1.05822 -6.56821,-2.445028 -10.31736,-1.177967 l -0.0812,0 -0.0812,0.04062 c -3.09443,1.553969 -6.4178,1.431717 -10.03302,1.056107 -3.61522,-0.375609 -7.47598,-1.005813 -11.37347,-0.08124 l -0.12179,0 -0.12179,0.08124 c -3.35132,1.557622 -6.73966,0.730976 -10.52046,-0.284336 -3.7808,-1.015313 -7.91872,-2.258944 -12.18586,-0.649913 -2.7798,1.096897 -5.5581,0.285049 -8.69258,-0.731151 -3.13447,-1.0162 -6.60576,-2.227744 -10.31736,-0.974869 l -0.20309,0.04062 -0.16248,0.162478 c -2.30763,1.748454 -4.71526,2.696454 -7.23021,2.55903 -2.514949,-0.137424 -5.245599,-1.386747 -8.245769,-4.386909 z m 0,-14.623028 -1.78726,1.787259 c 3.30838,3.308375 6.67029,4.900349 9.911159,5.07744 3.10078,0.169436 5.97755,-0.995796 8.5301,-2.843367 2.77262,-0.935919 5.57744,-0.04824 8.7332,0.974869 3.14477,1.01954 6.66752,2.129331 10.35798,0.690532 0.013,-0.0048 0.028,0.0047 0.0406,0 3.33818,-1.241663 6.8028,-0.289021 10.60169,0.731151 3.73922,1.004146 7.82374,2.022472 11.98276,0.203098 3.25736,-0.772719 6.80755,-0.22328 10.52046,0.162478 3.65854,0.380109 7.55692,0.554235 11.29223,-1.259205 2.74767,-0.928601 5.52927,0.09699 8.69257,1.177966 3.16331,1.080967 6.77452,2.167693 10.47984,0.243717 l 0.0406,0 0.0405,-0.04062 c 2.51178,-1.501684 5.07864,-1.760072 7.88019,-1.665401 2.80155,0.09467 5.78736,0.574378 8.89567,0.365576 l 0.0812,0 0.1218,0 c 2.55159,-0.606019 5.07584,-1.681898 7.43337,-2.193454 2.35753,-0.511557 4.41808,-0.510124 6.4585,0.771771 l 0.0406,0 0,0.04062 c 2.46373,1.378681 5.81704,1.300584 8.65196,1.502922 1.41746,0.101166 2.70535,0.264062 3.57452,0.528054 0.86916,0.263992 1.11951,0.502711 1.21858,0.812391 l 0.2846,-0.08124 0.77177,1.299825 0.81239,-0.528054 0.85301,-0.528054 -0.28434,-0.934249 c -0.4352,-1.360303 -1.6765,-2.098702 -2.9246,-2.477791 -1.24811,-0.379089 -2.6771,-0.504653 -4.14319,-0.609293 -2.9322,-0.209281 -6.08698,-0.396956 -7.55524,-1.218586 l 0,0.04062 c -2.71937,-1.691931 -5.65933,-1.67558 -8.327,-1.096727 -2.60808,0.565921 -5.02366,1.605209 -7.23027,2.152834 -0.013,8.6e-4 -0.0278,-8.3e-4 -0.0406,0 -2.7172,0.176523 -5.61213,-0.264225 -8.61134,-0.365575 -2.98581,-0.100893 -6.14119,0.202716 -9.18001,1.990356 -0.0279,0.01647 -0.0533,0.02389 -0.0812,0.04062 -2.7501,1.38461 -5.384,0.641132 -8.44886,-0.406195 -3.09674,-1.058222 -6.56821,-2.485646 -10.31736,-1.218586 l -0.0812,0.04062 -0.0812,0.04062 c -3.09443,1.55397 -6.4178,1.431717 -10.03302,1.056108 -3.61522,-0.375609 -7.47598,-1.046432 -11.37347,-0.121859 l -0.12179,0.04062 -0.12179,0.08124 c -3.35132,1.557621 -6.73966,0.730976 -10.52046,-0.284337 -3.7808,-1.015313 -7.91872,-2.258942 -12.18586,-0.649912 -2.7798,1.096897 -5.5581,0.285049 -8.69258,-0.731152 -3.13447,-1.0162 -6.60576,-2.227746 -10.31736,-0.974869 l -0.20329,0.04062 -0.16248,0.121859 c -2.30769,1.748452 -4.71532,2.696455 -7.23027,2.55903 -2.514949,-0.137426 -5.245599,-1.346128 -8.245769,-4.346289 z m 0,-14.62303 -1.78726,1.787259 c 3.30838,3.308374 6.67029,4.90035 9.911159,5.077441 3.13118,0.171096 6.04047,-1.004279 8.61134,-2.883986 2.74679,-0.892047 5.52647,0.0022 8.65196,1.015488 3.14477,1.019539 6.66752,2.129331 10.35798,0.690532 0.013,-0.0048 0.028,0.0047 0.0406,0 3.33818,-1.241663 6.8028,-0.289022 10.60169,0.731151 3.73922,1.004146 7.82374,2.022473 11.98276,0.203098 3.25736,-0.772718 6.80755,-0.223282 10.52046,0.162478 3.65836,0.380091 7.55709,0.553947 11.29223,-1.259205 2.74767,-0.928602 5.52927,0.09701 8.69257,1.177966 3.16331,1.080967 6.77452,2.167692 10.47984,0.243717 l 0.0406,0 0.0405,-0.04062 c 2.51178,-1.501681 5.07864,-1.760072 7.88019,-1.665401 2.80155,0.09467 5.78736,0.57438 8.89567,0.365576 l 0.0812,0 0.1218,-0.04062 c 2.55159,-0.606019 5.07584,-1.641278 7.43337,-2.152835 2.35753,-0.511556 4.41808,-0.510125 6.4585,0.771771 l 0.0406,0 c 2.46373,1.378681 5.81704,1.341204 8.65196,1.543542 1.41746,0.101166 2.70535,0.264062 3.57452,0.528054 0.86916,0.263992 1.11951,0.502711 1.21858,0.81239 l 0.28434,-0.08124 0.77177,1.299825 0.81239,-0.528054 0.85301,-0.528053 -0.28434,-0.93425 c -0.4352,-1.360303 -1.6765,-2.098701 -2.9246,-2.477791 -1.24811,-0.37909 -2.6771,-0.504653 -4.14319,-0.609292 -2.9322,-0.209281 -6.08698,-0.396958 -7.55524,-1.218586 -2.71602,-1.684392 -5.66322,-1.634115 -8.327,-1.056108 -2.60808,0.565922 -5.02366,1.60521 -7.23027,2.152835 -0.013,8.59e-4 -0.0278,-8.31e-4 -0.0406,0 -2.7172,0.176523 -5.61213,-0.264226 -8.61134,-0.365576 -2.98581,-0.100905 -6.14119,0.20272 -9.18001,1.990357 -0.028,0.01647 -0.0533,0.02389 -0.0812,0.04062 -2.7501,1.38461 -5.384,0.600511 -8.44886,-0.446815 -3.09674,-1.05822 -6.56821,-2.445025 -10.31736,-1.177966 l -0.0812,0.04062 -0.0812,0.04062 c -3.09454,1.55397 -6.41791,1.431716 -10.03313,1.056107 -3.61522,-0.375609 -7.47598,-1.046431 -11.37347,-0.121858 l -0.12179,0.04062 -0.12179,0.04062 c -3.35132,1.557623 -6.73966,0.771595 -10.52046,-0.243718 -3.7808,-1.015312 -7.91872,-2.258942 -12.18586,-0.649912 -2.7798,1.096898 -5.5581,0.285049 -8.69258,-0.731151 -3.13447,-1.016201 -6.60576,-2.268366 -10.31736,-1.015488 l -0.20309,0.08124 -0.16248,0.121858 c -2.3077,1.748452 -4.71532,2.696454 -7.23028,2.55903 -2.514949,-0.137424 -5.245599,-1.34613 -8.245759,-4.346289 z m 0,-14.013735 -1.78726,1.787259 c 3.30838,3.308374 6.67029,4.940969 9.911159,5.118059 3.10078,0.169436 5.97755,-1.036415 8.5301,-2.883986 2.77262,-0.935919 5.57744,-0.04824 8.7332,0.974869 3.14477,1.019539 6.66752,2.12933 10.35798,0.690532 0.013,-0.0048 0.0278,0.0047 0.0406,0 3.3381,-1.241524 6.80289,-0.288997 10.60169,0.731151 3.73945,1.00421 7.82347,2.02295 11.98276,0.203098 3.25736,-0.772718 6.80755,-0.223282 10.52046,0.162478 3.66258,0.380529 7.5531,0.560697 11.29223,-1.259205 0.0117,-0.0057 0.0289,0.0057 0.0405,0 2.73474,-0.90521 5.50399,0.142858 8.65196,1.218585 3.16331,1.080967 6.77452,2.127073 10.47984,0.203098 l 0.0405,0 0.0406,0 c 2.51178,-1.501682 5.07863,-1.760072 7.88018,-1.665401 2.80156,0.09467 5.78737,0.57438 8.89568,0.365576 l 0.0812,-0.04062 0.12179,0 c 2.5516,-0.606019 5.07584,-1.681898 7.43338,-2.193454 2.35753,-0.511557 4.41807,-0.510126 6.4585,0.771771 l 0.0405,0 0,0.04062 c 2.46373,1.378678 5.81705,1.300585 8.65196,1.502922 1.41746,0.101166 2.70535,0.264062 3.57452,0.528054 0.86917,0.263992 1.11951,0.543331 1.21859,0.85301 l 0.28466,-0.08124 0.77177,1.259205 0.81239,-0.487434 0.85301,-0.528054 -0.28434,-0.934249 c -0.4352,-1.360303 -1.6765,-2.098702 -2.9246,-2.477791 -1.24811,-0.379089 -2.6771,-0.545273 -4.14319,-0.649912 -2.91476,-0.208036 -6.0351,-0.368779 -7.51462,-1.177966 -0.0117,-0.0075 -0.0287,0.0074 -0.0405,0 -2.71938,-1.691933 -5.65933,-1.634959 -8.327,-1.056108 -2.66589,0.578465 -5.14932,1.615342 -7.39276,2.152835 -0.013,7.48e-4 -0.0278,-7.22e-4 -0.0406,0 -2.67217,0.150454 -5.50615,-0.266134 -8.44886,-0.365576 -2.98576,-0.100892 -6.14126,0.162189 -9.18001,1.949737 -0.0281,0.0165 -0.0532,0.02387 -0.0812,0.04062 -2.75011,1.384609 -5.38401,0.641131 -8.44887,-0.406195 -3.09674,-1.05822 -6.5682,-2.445027 -10.31735,-1.177966 l -0.0812,0 -0.0812,0.04062 c -3.09443,1.55397 -6.41781,1.431716 -10.03302,1.056107 -3.61522,-0.375609 -7.47599,-1.005812 -11.37347,-0.08124 l -0.1218,0 -0.12179,0.08124 c -3.35131,1.557623 -6.73966,0.730976 -10.52046,-0.284337 -3.7808,-1.015312 -7.91871,-2.258943 -12.18585,-0.649912 -2.77981,1.096896 -5.55811,0.285049 -8.69258,-0.731152 -3.13448,-1.0162 -6.60576,-2.227744 -10.31736,-0.974868 l -0.20336,0.08124 -0.16248,0.121858 c -2.30769,1.748453 -4.71532,2.696455 -7.23027,2.559031 -2.514949,-0.137424 -5.245599,-1.386748 -8.245769,-4.386909 z M 60.860728,14.155911 c -0.888469,0 -1.755855,0.075 -2.597362,0.236125 4.507831,6.031899 3.96674,15.10108 14.811438,19.770042 0.969813,-1.877229 1.524071,-4.006665 1.524071,-6.268028 l 0,-0.04293 C 74.583667,20.274532 68.437342,14.15591 60.860728,14.15591 z m -6.268015,1.524075 c -4.430284,2.279921 -7.470119,6.888559 -7.470119,12.214064 0,6.385647 4.357545,11.725643 10.260674,13.265893 -10.264509,6.895099 -10.269383,27.472224 -17.129745,41.192955 l 41.214419,0 C 74.607688,68.632391 74.60219,48.055385 64.338201,41.159943 c 2.984515,-0.781337 5.57374,-2.525535 7.405713,-4.89421 C 59.336657,30.727545 62.641657,23.728941 54.592713,15.679986 z m 6.461208,28.785697 c 0.947078,0 1.715379,0.770196 1.717276,1.717268 0,0.948422 -0.768846,1.717268 -1.717276,1.717268 -0.948417,0 -1.717264,-0.768846 -1.717264,-1.717268 0,-0.94842 0.768847,-1.717268 1.717264,-1.717268 z m 0,9.616698 c 0.947078,0 1.715379,0.770194 1.717276,1.717271 0,0.948418 -0.768846,1.717268 -1.717276,1.717268 -0.948417,0 -1.717264,-0.76885 -1.717264,-1.717268 0,-0.948422 0.768847,-1.717271 1.717264,-1.717271 z m 0,9.6167 c 0.947078,0 1.715379,0.770195 1.717276,1.717268 0,0.948417 -0.768846,1.717267 -1.717276,1.717267 -0.948417,0 -1.717264,-0.76885 -1.717264,-1.717267 0,-0.948419 0.768847,-1.717268 1.717264,-1.717268 z"
     id="path3891"
     style="font-size:medium;font-style:normal;font-variant:normal;font-weight:normal;font-stretch:normal;text-indent:0;text-align:start;text-decoration:none;line-height:normal;letter-spacing:normal;word-spacing:normal;text-transform:none;direction:ltr;block-progression:tb;writing-mode:lr-tb;text-anchor:start;baseline-shift:baseline;color:#000000;fill:#cccccc;fill-opacity:1;stroke:none;stroke-width:1.94134951;marker:none;visibility:visible;display:inline;overflow:visible;enable-background:accumulate;font-family:Sans;-inkscape-font-specification:Sans" />
  <path
     d="m 148.5839,92.172027 0,1.259205 0,63.082128 0,1.2592 1.25921,0 88.30684,0 1.25921,0 0,-1.2592 0,-63.082128 0,-1.259205 -1.25921,0 -88.30684,0 -1.25921,0 z m 5.48364,2.51841 79.81736,0 -39.88837,28.514903 -39.92899,-28.514903 z m -2.96523,1.421684 40.37581,28.839859 -40.37581,28.88049 0,-57.720349 z m 85.78844,0 0,57.720349 -40.41643,-28.83987 40.41643,-28.880479 z m -42.89422,30.627119 39.88837,28.51491 -79.81736,0 39.92899,-28.51491 z"
     id="rect3893"
     style="font-size:medium;font-style:normal;font-variant:normal;font-weight:normal;font-stretch:normal;text-indent:0;text-align:start;text-decoration:none;line-height:normal;letter-spacing:normal;word-spacing:normal;text-transform:none;direction:ltr;block-progression:tb;writing-mode:lr-tb;text-anchor:start;baseline-shift:baseline;color:#000000;fill:#cccccc;fill-opacity:1;fill-rule:evenodd;stroke:none;stroke-width:1.94134951;marker:none;visibility:visible;display:inline;overflow:visible;enable-background:accumulate;font-family:Sans;-inkscape-font-specification:Sans" />
  <path
     d="m 45.897743,96.437077 c -1.742054,0 -3.168323,1.426269 -3.168323,3.168323 0,1.74205 1.426269,3.1277 3.168323,3.1277 1.742051,0 3.168323,-1.38565 3.168323,-3.1277 l 0,-0.04062 c -0.0039,-1.73958 -1.428742,-3.127703 -3.168323,-3.127703 z m 9.301871,1.421683 0,3.77762 75.714796,0 0,-3.77762 -75.714796,0 z m -9.464349,11.25161 c -1.742054,0 -3.168323,1.42627 -3.168323,3.16832 0,1.74205 1.426269,3.16832 3.168323,3.16832 1.742051,0 3.168323,-1.42627 3.168323,-3.16832 -0.0039,-1.73958 -1.428742,-3.16832 -3.168323,-3.16832 z m 9.464349,1.34044 0,3.81824 75.714796,0 0,-3.81824 -75.714796,0 z m -9.301871,11.21099 c -1.742054,0 -3.168323,1.42627 -3.168323,3.16832 0,1.74206 1.426269,3.12771 3.168323,3.12771 1.742051,0 3.168323,-1.38565 3.168323,-3.12771 l 0,-0.0406 c -0.0039,-1.73957 -1.428742,-3.1277 -3.168323,-3.1277 z m 9.301871,1.42168 0,3.77762 75.714796,0 0,-3.77762 -75.714796,0 z m -9.301871,11.25161 c -1.742054,0 -3.168323,1.42628 -3.168323,3.16833 0,1.74205 1.426269,3.16832 3.168323,3.16832 1.742051,0 3.168323,-1.42627 3.168323,-3.16832 -0.0039,-1.73959 -1.428742,-3.16833 -3.168323,-3.16833 z m 9.301871,1.6654 0,3.77762 75.714796,0 0,-3.77762 -75.714796,0 z m -9.301871,10.96728 c -1.742054,0 -3.168323,1.42627 -3.168323,3.16832 0,1.74205 1.426269,3.12771 3.168323,3.12771 1.742051,0 3.168323,-1.38566 3.168323,-3.12771 -0.0039,-1.73958 -1.428742,-3.16832 -3.168323,-3.16832 z m 9.301871,1.6654 0,3.77762 75.714796,0 0,-3.77762 -75.714796,0 z"
     id="path3903"
     style="fill:#cccccc;fill-opacity:1;fill-rule:evenodd;stroke:#cccccc;stroke-width:0;stroke-linecap:butt;stroke-linejoin:miter;stroke-miterlimit:4;stroke-opacity:1;stroke-dashoffset:0" />
</svg>
