<?xml version="1.0" encoding="UTF-8" standalone="no"?>
<!-- Created with Inkscape (http://www.inkscape.org/) -->

<svg
   xmlns:dc="http://purl.org/dc/elements/1.1/"
   xmlns:cc="http://creativecommons.org/ns#"
   xmlns:rdf="http://www.w3.org/1999/02/22-rdf-syntax-ns#"
   xmlns:svg="http://www.w3.org/2000/svg"
   xmlns="http://www.w3.org/2000/svg"
   version="1.1"
   width="280"
   height="165"
   id="svg2">
  <defs
     id="defs4" />
  <metadata
     id="metadata7">
    <rdf:RDF>
      <cc:Work
         rdf:about="">
        <dc:format>image/svg+xml</dc:format>
        <dc:type
           rdf:resource="http://purl.org/dc/dcmitype/StillImage" />
        <dc:title></dc:title>
      </cc:Work>
    </rdf:RDF>
  </metadata>
  <g
     transform="translate(0,-887.36218)"
     id="layer1" />
  <path
     d="m 33.234552,60.160471 -0.472309,1.762663 -21.725993,81.082536 -0.472305,1.76266 1.762663,0.4723 56.405234,15.11373 1.762658,0.47231 0.472309,-1.76267 21.725994,-81.08252 0.4723,-1.762664 -1.76265,-0.472303 L 34.99721,60.632776 33.234552,60.160471 z m 2.580711,4.469935 52.87991,14.16913 L 67.913789,156.35674 15.033881,142.1876 35.815263,64.630406 z M 60.951329,75.8761 c -4.13981,-1.109259 -8.389357,1.344221 -9.498612,5.484027 -0.932997,3.482002 0.661971,7.043869 3.654109,8.74852 -6.608555,2.261444 -9.61491,13.487433 -15.364004,19.970743 l 22.473967,6.02188 c -1.737203,-8.48926 1.272217,-19.714425 -3.320243,-24.97717 3.443582,0.01979 6.60581,-2.267384 7.538807,-5.749387 l 0.0062,-0.02202 c 1.099395,-4.136146 -1.355995,-8.368896 -5.489933,-9.47658 z m -6.326844,18.235969 2.732128,0.732071 -1.282902,2.584532 -1.630468,-0.43688 0.181242,-2.879723 z m -0.344956,3.402618 1.630455,0.436882 -0.580913,6.574681 -2.282937,0.85243 -1.550863,-1.87969 2.784258,-5.984303 z m -25.645106,15.066953 -0.566759,2.11519 42.303915,11.3353 0.56677,-2.11518 -42.303926,-11.33531 z m -1.889213,7.05065 -0.566764,2.11519 42.303923,11.33531 0.56677,-2.11521 -42.303929,-11.33529 z m -1.889219,7.05065 -0.566764,2.11521 42.303919,11.33531 0.566771,-2.11521 -42.303926,-11.33531 z m -1.889216,7.05067 -0.566764,2.11519 42.303925,11.3353 0.566758,-2.11519 -42.303919,-11.3353 z"
     id="path2989"
     style="fill:#cccccc;fill-opacity:1;fill-rule:evenodd;stroke:#cccccc;stroke-width:0;stroke-linecap:butt;stroke-linejoin:miter;stroke-miterlimit:4;stroke-opacity:1;stroke-dasharray:none;stroke-dashoffset:0" />
  <path
     d="m 97.799823,64.635705 0.47973,1.790372 21.720487,81.061983 0.46953,1.75228 1.75228,-0.46953 56.41578,-15.11655 1.75228,-0.46954 -0.46953,-1.75228 -21.72049,-81.061971 -0.47973,-1.790373 -1.75227,0.469522 -56.415787,15.116565 -1.75228,0.469522 z m 4.453807,2.603609 52.91124,-14.177522 20.78145,77.557418 -52.91123,14.17753 -20.78146,-77.557426 z m 26.28459,-2.470199 c -0.48205,0.129166 -0.93545,0.320277 -1.36861,0.53003 3.32274,2.61737 4.34303,7.593844 10.9058,8.550467 0.25327,-1.15952 0.22028,-2.377683 -0.10833,-3.604628 l -0.01,-0.03809 c -1.10977,-4.108603 -5.30766,-6.539278 -9.4185,-5.437783 z m -3.20381,1.756675 c -2.07227,1.88109 -3.03608,4.820675 -2.26185,7.71013 0.92836,3.464654 4.06392,5.731873 7.4907,5.709363 -4.56678,5.233331 -1.57569,16.409309 -3.30319,24.851117 l 1.18089,-0.31641 c -0.0111,0.0533 -0.0348,0.0824 -0.0455,0.13469 l 22.47489,-6.02213 c -0.0443,-0.04995 -0.073,-0.08145 -0.11706,-0.131958 l -1.1428,0.306209 c -5.70159,-6.45102 -8.71361,-17.586029 -15.27599,-19.832012 1.50571,-0.857819 2.67375,-2.196946 3.32337,-3.748453 -7.53694,-1.20107 -6.78617,-5.463596 -12.32345,-8.660546 z m 7.68942,14.679102 c 0.51386,-0.137686 1.06879,0.183575 1.20751,0.697152 0.13788,0.514581 -0.19278,1.031523 -0.70737,1.169406 -0.51458,0.137882 -1.02131,-0.154682 -1.15919,-0.669265 -0.13789,-0.514584 0.14446,-1.05941 0.65905,-1.197293 z m 1.39837,5.218745 c 0.51384,-0.137686 1.05856,0.145482 1.19728,0.659058 0.13788,0.514584 -0.18255,1.069619 -0.69714,1.2075 -0.51459,0.137883 -1.03154,-0.192772 -1.16941,-0.707357 -0.13789,-0.514583 0.15468,-1.02132 0.66927,-1.159201 z m 1.39835,5.218746 c 0.51385,-0.137686 1.05858,0.145482 1.19729,0.659057 0.13789,0.514583 -0.18256,1.069619 -0.69715,1.207502 -0.51459,0.137882 -1.03152,-0.192775 -1.1694,-0.707358 -0.13789,-0.514584 0.15468,-1.021318 0.66926,-1.159201 z m -15.79903,20.727847 0.56138,2.09512 42.32136,-11.33998 -0.56138,-2.09511 -42.32136,11.33997 z m 1.88829,7.04721 0.56139,2.09511 42.32134,-11.33997 -0.56136,-2.09511 -42.32137,11.33997 z m 1.8883,7.04722 0.56139,2.09509 42.32136,-11.33996 -0.56141,-2.09511 -42.32134,11.33998 z m 1.8883,7.04721 0.56138,2.0951 42.32136,-11.33996 -0.56139,-2.09513 -42.32135,11.33999 z"
     id="path3765"
     style="fill:#cccccc;fill-opacity:1;fill-rule:evenodd;stroke:#222222;stroke-width:0;stroke-linecap:butt;stroke-linejoin:miter;stroke-miterlimit:4;stroke-opacity:1;stroke-dasharray:none;stroke-dashoffset:0" />
  <path
     d="m 210.13649,35.548667 -0.47324,1.735221 -21.69025,81.082082 -0.47324,1.77465 1.73522,0.47325 56.43408,15.10431 1.73522,0.47323 0.47323,-1.73521 21.7297,-81.082094 0.47323,-1.774655 -1.77465,-0.473242 -56.39464,-15.104299 -1.77466,-0.473243 z m 2.60283,4.45636 52.88476,14.157816 -20.78319,77.572207 -52.88477,-14.15782 20.7832,-77.572203 z m 22.55786,11.51555 c -3.27645,0.130298 -6.24473,2.344973 -7.13807,5.6789 -0.92476,3.451292 0.66246,6.986485 3.6282,8.676099 -6.43685,2.203021 -9.43705,12.971676 -14.94656,19.442348 l -0.0393,0 c -0.0439,0.05051 -0.11336,0.06837 -0.15774,0.118317 l 0.0789,0.03943 c -0.0548,0.06323 -0.10253,0.134813 -0.15774,0.197184 l 22.2818,5.954957 c -0.0159,-0.07691 -0.0245,-0.159264 -0.0393,-0.236619 l 0.31549,0.07888 c -0.0134,-0.06544 -0.0267,-0.13145 -0.0393,-0.197183 l -0.31549,-0.07888 c -1.54105,-8.360316 1.28109,-19.203813 -3.19438,-24.332513 3.41564,0.02244 6.52823,-2.225503 7.45355,-5.678902 1.08939,-4.099751 -1.3448,-8.327483 -5.44227,-9.425397 -0.76937,-0.206151 -1.53124,-0.266691 -2.28733,-0.23662 z m -6.07328,17.943749 2.09015,1.380289 c -0.37814,0.504317 -0.31084,0.803047 -0.31549,1.143668 l -2.52395,0.157746 0.74929,-2.681703 z m 3.07608,1.340851 c 0.12829,-0.01808 0.26193,-0.03549 0.39437,0 0.52899,0.141742 0.85053,0.693277 0.70985,1.222542 -0.14194,0.529732 -0.69279,0.851803 -1.22253,0.709862 -0.52974,-0.14194 -0.85181,-0.692807 -0.70986,-1.222541 0.10647,-0.397298 0.44334,-0.655597 0.82817,-0.709863 z m 4.14087,0.591553 -0.70986,2.681703 -2.09016,-1.380289 c 0.37816,-0.504313 0.31085,-0.803045 0.3155,-1.143667 l 2.48452,-0.157747 z m -30.87903,16.56346 -0.59155,2.129588 42.31571,11.318362 0.55211,-2.129585 -42.27627,-11.318365 z m -1.89297,7.05919 -0.59155,2.090151 42.3157,11.357799 0.59155,-2.12959 -42.3157,-11.31836 z m -1.89296,7.01975 -0.55212,2.12958 42.27626,11.3578 0.59155,-2.12958 -42.31569,-11.3578 z m -1.89296,7.05918 -0.55211,2.1296 42.27624,11.31836 0.59156,-2.09014 -42.31569,-11.35782 z"
     id="path3769"
     style="fill:#cccccc;fill-opacity:1;fill-rule:evenodd;stroke:#222222;stroke-width:0;stroke-linecap:butt;stroke-linejoin:miter;stroke-miterlimit:4;stroke-opacity:1;stroke-dashoffset:0" />
</svg>
