<?xml version="1.0" encoding="UTF-8" standalone="no"?>
<!-- Created with Inkscape (http://www.inkscape.org/) -->

<svg
   xmlns:dc="http://purl.org/dc/elements/1.1/"
   xmlns:cc="http://creativecommons.org/ns#"
   xmlns:rdf="http://www.w3.org/1999/02/22-rdf-syntax-ns#"
   xmlns:svg="http://www.w3.org/2000/svg"
   xmlns="http://www.w3.org/2000/svg"
   version="1.1"
   width="280"
   height="165"
   id="svg2">
  <defs
     id="defs4" />
  <metadata
     id="metadata7">
    <rdf:RDF>
      <cc:Work
         rdf:about="">
        <dc:format>image/svg+xml</dc:format>
        <dc:type
           rdf:resource="http://purl.org/dc/dcmitype/StillImage" />
        <dc:title></dc:title>
      </cc:Work>
    </rdf:RDF>
  </metadata>
  <g
     transform="translate(0,-887.36218)"
     id="layer1" />
  <path
     d="m -160.38994,-15.224587 c -1.62385,6.9663497 -5.68442,12.4352397 -11.62359,14.48345967 -5.93515,2.04683003 -12.50448,0.25447 -18.07493,-4.22332997 -0.34241,4.13831997 0.19728,8.6647 1.7508,13.16941 4.53869,13.1607203 15.97994,21.1474303 25.56266,17.8426803 9.58274,-3.30476 13.66862,-16.6462503 9.12993,-29.8069803 l -0.0167,-0.0486 c -1.55767,-4.49568 -3.90894,-8.3769997 -6.72811,-11.4166497 z"
     id="path3967"
     style="fill:#cccccc;fill-opacity:1;fill-rule:evenodd;stroke:#ffffff;stroke-width:0;stroke-linecap:butt;stroke-linejoin:miter;stroke-miterlimit:4;stroke-opacity:1;stroke-dasharray:none;stroke-dashoffset:0" />
  <path
     d="m -55,37.5 a 25,17.5 0 1 1 -5e-5,-0.03511"
     transform="matrix(0.53851759,-0.18571635,0.17873822,0.51828329,-139.9872,-47.614345)"
     id="path3972"
     style="fill:#cccccc;fill-opacity:1;fill-rule:evenodd;stroke:#ffffff;stroke-width:0;stroke-linecap:butt;stroke-linejoin:miter;stroke-miterlimit:4;stroke-opacity:1;stroke-dasharray:none;stroke-dashoffset:0" />
  <path
     d="m -65,22.5 a 15,12.5 0 1 1 -3e-5,-0.02508"
     transform="matrix(0.51828329,-0.17873822,0.17873822,0.51828329,-141.07524,-47.239117)"
     id="path3974"
     style="fill:#cccccc;fill-opacity:1;fill-rule:evenodd;stroke:#ffffff;stroke-width:0;stroke-linecap:butt;stroke-linejoin:miter;stroke-miterlimit:4;stroke-opacity:1;stroke-dasharray:none;stroke-dashoffset:0" />
  <path
     d="m -158.49907,-5.2749473 c 6.11998,-3.33142 9.8246,-8.8313597 11.97375,-15.7278137"
     id="path3976"
     style="fill:#cccccc;fill-opacity:0;stroke:#cccccc;stroke-width:4.38590431;stroke-linecap:round;stroke-linejoin:miter;stroke-miterlimit:4;stroke-opacity:1;stroke-dasharray:none" />
  <path
     d="m -155.59026,10.321553 c 6.87252,-1.1492503 13.17987,0.89789 19.12326,5.00351"
     id="path3978"
     style="fill:#cccccc;fill-opacity:0;stroke:#cccccc;stroke-width:4.38590431;stroke-linecap:round;stroke-linejoin:miter;stroke-miterlimit:4;stroke-opacity:1;stroke-dasharray:none" />
  <path
     d="m -156.23521,2.6281327 c 6.90346,-0.94584 12.31704,-4.77555 16.77114,-10.46246"
     id="path3980"
     style="fill:#cccccc;fill-opacity:0;stroke:#cccccc;stroke-width:4.38590431;stroke-linecap:round;stroke-linejoin:miter;stroke-miterlimit:4;stroke-opacity:1;stroke-dasharray:none" />
  <path
     d="m -179.97994,16.192003 c -5.04919,4.80186 -7.20409,11.07322 -7.49508,18.29093"
     id="path3982"
     style="fill:#cccccc;fill-opacity:0;stroke:#cccccc;stroke-width:4.38590431;stroke-linecap:round;stroke-linejoin:miter;stroke-miterlimit:4;stroke-opacity:1;stroke-dasharray:none" />
  <path
     d="m -186.82629,1.8797827 c -6.34089,2.88884 -12.96317,2.54392 -19.76666,0.11644"
     id="path3984"
     style="fill:#cccccc;fill-opacity:0;stroke:#cccccc;stroke-width:4.38590431;stroke-linecap:round;stroke-linejoin:miter;stroke-miterlimit:4;stroke-opacity:1;stroke-dasharray:none" />
  <path
     d="m -184.21211,9.1441427 c -6.42343,2.7003603 -10.66134,7.8007003 -13.4918,14.4466403"
     id="path3986"
     style="fill:#cccccc;fill-opacity:0;stroke:#cccccc;stroke-width:4.38590431;stroke-linecap:round;stroke-linejoin:miter;stroke-miterlimit:4;stroke-opacity:1;stroke-dasharray:none" />
  <path
     d="m -220.83607,-51.255259 c -8.95651,4.712753 -18.56705,5.432088 -26.25734,0.974434 -7.68509,-4.454628 -11.84996,-13.142387 -12.21694,-23.247897 -4.74444,3.465275 -9.08734,8.233574 -12.46835,14.066466 -9.87779,17.041058 -7.82914,36.676329 4.57895,43.868639 12.40814,7.1923297 30.46469,-0.78904 40.34248,-17.830102 l 0.0365,-0.06291 c 3.36752,-5.828965 5.34297,-11.938155 5.98473,-17.768616 z"
     id="path3988"
     style="fill:#cccccc;fill-opacity:1;fill-rule:evenodd;stroke:#ffffff;stroke-width:0;stroke-linecap:butt;stroke-linejoin:miter;stroke-miterlimit:4;stroke-opacity:1;stroke-dasharray:none;stroke-dashoffset:0" />
  <path
     d="m -55,37.5 a 25,17.5 0 1 1 -5e-5,-0.03511"
     transform="matrix(0.69729511,0.40418474,-0.38899788,0.67109487,-167.29311,-59.416439)"
     id="path3990"
     style="fill:#cccccc;fill-opacity:1;fill-rule:evenodd;stroke:#ffffff;stroke-width:0;stroke-linecap:butt;stroke-linejoin:miter;stroke-miterlimit:4;stroke-opacity:1;stroke-dasharray:none;stroke-dashoffset:0" />
  <path
     d="m -65,22.5 a 15,12.5 0 1 1 -3e-5,-0.02508"
     transform="matrix(0.67109487,0.38899788,-0.38899788,0.67109487,-168.70193,-60.233062)"
     id="path3992"
     style="fill:#cccccc;fill-opacity:1;fill-rule:evenodd;stroke:#ffffff;stroke-width:0;stroke-linecap:butt;stroke-linejoin:miter;stroke-miterlimit:4;stroke-opacity:1;stroke-dasharray:none;stroke-dashoffset:0" />
  <path
     d="m -229.73004,-40.020084 c 9.23053,3.462998 18.54473,2.334099 27.91282,-1.751947"
     id="path3994"
     style="fill:#cccccc;fill-opacity:0;stroke:#cccccc;stroke-width:6.20548344;stroke-linecap:round;stroke-linejoin:miter;stroke-miterlimit:4;stroke-opacity:1;stroke-dasharray:none" />
  <path
     d="m -243.72285,-22.467514 c 7.59271,6.288547 11.24243,14.9319267 12.35291,25.0918267"
     id="path3996"
     style="fill:#cccccc;fill-opacity:0;stroke:#cccccc;stroke-width:6.20548344;stroke-linecap:round;stroke-linejoin:miter;stroke-miterlimit:4;stroke-opacity:1;stroke-dasharray:none" />
  <path
     d="m -236.08914,-30.28073 c 7.40373,6.509973 16.51331,8.755852 26.72148,8.255683"
     id="path3998"
     style="fill:#cccccc;fill-opacity:0;stroke:#cccccc;stroke-width:6.20548344;stroke-linecap:round;stroke-linejoin:miter;stroke-miterlimit:4;stroke-opacity:1;stroke-dasharray:none" />
  <path
     d="m -272.58542,-43.125617 c -9.81228,-0.955933 -18.51692,2.545181 -26.50826,8.91664"
     id="path4000"
     style="fill:#cccccc;fill-opacity:0;stroke:#cccccc;stroke-width:6.20548344;stroke-linecap:round;stroke-linejoin:miter;stroke-miterlimit:4;stroke-opacity:1;stroke-dasharray:none" />
  <path
     d="m -263.61233,-63.701682 c -8.96158,-4.109108 -14.72403,-11.513364 -18.42623,-21.039692"
     id="path4002"
     style="fill:#cccccc;fill-opacity:0;stroke:#cccccc;stroke-width:6.20548344;stroke-linecap:round;stroke-linejoin:miter;stroke-miterlimit:4;stroke-opacity:1;stroke-dasharray:none" />
  <path
     d="m -268.96372,-54.178932 c -8.83636,-4.371925 -18.21681,-4.18356 -27.94769,-1.058358"
     id="path4004"
     style="fill:#cccccc;fill-opacity:0;stroke:#cccccc;stroke-width:6.20548344;stroke-linecap:round;stroke-linejoin:miter;stroke-miterlimit:4;stroke-opacity:1;stroke-dasharray:none" />
  <path
     d="m -332.29836,-20.061179 c -1.78629,7.663182 -6.25303,13.6791117 -12.78628,15.9322117 -6.52883,2.25157 -13.75528,0.27993 -19.88293,-4.64578 -0.37667,4.55226 0.21701,9.53141997 1.92592,14.48672 4.99269,14.4771703 17.57839,23.2627703 28.11965,19.6274503 10.54129,-3.63532 15.03587,-18.3113403 10.04318,-32.7885103 l -0.0184,-0.0535 c -1.71348,-4.9453697 -4.29994,-9.2149397 -7.40111,-12.5586327 z"
     id="path4006"
     style="fill:#cccccc;fill-opacity:1;fill-rule:evenodd;stroke:#ffffff;stroke-width:0;stroke-linecap:butt;stroke-linejoin:miter;stroke-miterlimit:4;stroke-opacity:1;stroke-dasharray:none;stroke-dashoffset:0" />
  <path
     d="m -55,37.5 a 25,17.5 0 1 1 -5e-5,-0.03511"
     transform="matrix(0.59238454,-0.20429322,0.19661708,0.57012624,-309.85477,-55.690827)"
     id="path4008"
     style="fill:#cccccc;fill-opacity:1;fill-rule:evenodd;stroke:#ffffff;stroke-width:0;stroke-linecap:butt;stroke-linejoin:miter;stroke-miterlimit:4;stroke-opacity:1;stroke-dasharray:none;stroke-dashoffset:0" />
  <path
     d="m -65,22.5 a 15,12.5 0 1 1 -3e-5,-0.02508"
     transform="matrix(0.57012624,-0.19661708,0.19661708,0.57012624,-311.05165,-55.278066)"
     id="path4010"
     style="fill:#cccccc;fill-opacity:1;fill-rule:evenodd;stroke:#ffffff;stroke-width:0;stroke-linecap:butt;stroke-linejoin:miter;stroke-miterlimit:4;stroke-opacity:1;stroke-dasharray:none;stroke-dashoffset:0" />
  <path
     d="m -330.21835,-9.1162973 c 6.73215,-3.6646497 10.80733,-9.7147417 13.17146,-17.3010367"
     id="path4012"
     style="fill:#cccccc;fill-opacity:0;stroke:#cccccc;stroke-width:4.82461834;stroke-linecap:round;stroke-linejoin:miter;stroke-miterlimit:4;stroke-opacity:1;stroke-dasharray:none" />
  <path
     d="m -327.01858,8.0402927 c 7.55996,-1.2642 14.49823,0.98771 21.03612,5.5040103"
     id="path4014"
     style="fill:#cccccc;fill-opacity:0;stroke:#cccccc;stroke-width:4.82461834;stroke-linecap:round;stroke-linejoin:miter;stroke-miterlimit:4;stroke-opacity:1;stroke-dasharray:none" />
  <path
     d="m -327.72804,-0.42268733 c 7.594,-1.04044997 13.54909,-5.25323997 18.44872,-11.50899967"
     id="path4016"
     style="fill:#cccccc;fill-opacity:0;stroke:#cccccc;stroke-width:4.82461834;stroke-linecap:round;stroke-linejoin:miter;stroke-miterlimit:4;stroke-opacity:1;stroke-dasharray:none" />
  <path
     d="m -353.84792,14.497953 c -5.55425,5.28219 -7.9247,12.18086 -8.2448,20.12054"
     id="path4018"
     style="fill:#cccccc;fill-opacity:0;stroke:#cccccc;stroke-width:4.82461834;stroke-linecap:round;stroke-linejoin:miter;stroke-miterlimit:4;stroke-opacity:1;stroke-dasharray:none" />
  <path
     d="m -361.3791,-1.2458873 c -6.97515,3.1778 -14.25985,2.79838 -21.74388,0.12809"
     id="path4020"
     style="fill:#cccccc;fill-opacity:0;stroke:#cccccc;stroke-width:4.82461834;stroke-linecap:round;stroke-linejoin:miter;stroke-miterlimit:4;stroke-opacity:1;stroke-dasharray:none" />
  <path
     d="m -358.50342,6.7451127 c -7.06596,2.97047 -11.72778,8.5809903 -14.84136,15.8917103"
     id="path4022"
     style="fill:#cccccc;fill-opacity:0;stroke:#cccccc;stroke-width:4.82461834;stroke-linecap:round;stroke-linejoin:miter;stroke-miterlimit:4;stroke-opacity:1;stroke-dasharray:none" />
  <path
     d="m 73.40625,42 c -2.47114,0 -4.46875,1.99761 -4.46875,4.46875 l 0,71.75 c 0,2.47114 1.99761,4.4375 4.46875,4.4375 l 107.0625,0 c 2.47114,0 4.46875,-1.96636 4.46875,-4.4375 l 0,-71.75 C 184.9375,43.99761 182.93989,42 180.46875,42 l -107.0625,0 z m 4.46875,8.90625 98.125,0 0,58 -98.125,0 0,-58 z"
     id="rect4024"
     style="fill:#cccccc;fill-opacity:1;fill-rule:evenodd;stroke:#cccccc;stroke-width:0;stroke-linecap:round;stroke-linejoin:miter;stroke-miterlimit:4;stroke-opacity:1;stroke-dasharray:none;stroke-dashoffset:0" />
  <path
     d="m 113.55411,119.61343 26.76325,0 c -1.14231,11.11925 7.22187,13.46329 13.38163,17.84216 l -53.52651,0 c 6.58199,-3.98913 14.25395,-6.97213 13.38163,-17.84216 z"
     id="rect4028"
     style="fill:#cccccc;fill-opacity:1;fill-rule:evenodd;stroke:#cccccc;stroke-width:0;stroke-linecap:round;stroke-linejoin:miter;stroke-miterlimit:4;stroke-opacity:1;stroke-dashoffset:0" />
  <path
     d="m 194.96875,97.03125 0,54.46875 75,0 0,-54.46875 -75,0 z m 5,5 65,0 0,40 -65,0 0,-40 z"
     id="rect4031"
     style="fill:#cccccc;fill-opacity:1;fill-rule:evenodd;stroke:#cccccc;stroke-width:0;stroke-linecap:round;stroke-linejoin:miter;stroke-miterlimit:4;stroke-opacity:1;stroke-dasharray:none;stroke-dashoffset:0" />
  <rect
     width="85"
     height="4.9806948"
     ry="2.4903474"
     x="189.9807"
     y="147.0193"
     id="rect4033"
     style="fill:#cccccc;fill-opacity:1;fill-rule:evenodd;stroke:#cccccc;stroke-width:0;stroke-linecap:round;stroke-linejoin:miter;stroke-miterlimit:4;stroke-opacity:1;stroke-dasharray:none;stroke-dashoffset:0" />
  <path
     d="m 17.34375,92.0625 c -1.300511,0 -2.375,1.074489 -2.375,2.375 l 0,61.28125 c 0,1.30051 1.074489,2.34375 2.375,2.34375 l 35.3125,0 C 53.956761,158.0625 55,157.01926 55,155.71875 L 55,94.4375 c 0,-1.300511 -1.043239,-2.375 -2.34375,-2.375 l -35.3125,0 z m 5.21875,5 25.3125,0 c 1.300511,0 2.34375,1.07449 2.34375,2.375 l 0,40.28125 c 0,1.30051 -1.043239,2.34375 -2.34375,2.34375 l -25.3125,0 c -1.300511,0 -2.34375,-1.04324 -2.34375,-2.34375 l 0,-40.28125 c 0,-1.30051 1.043239,-2.375 2.34375,-2.375 z M 35.5,147 c 1.378753,0 2.497234,1.12125 2.5,2.5 0,1.38071 -1.119288,2.5 -2.5,2.5 -1.380712,0 -2.5,-1.11929 -2.5,-2.5 0,-1.38071 1.119288,-2.5 2.5,-2.5 z"
     id="rect4037"
     style="fill:#cccccc;fill-opacity:1;fill-rule:evenodd;stroke:#cccccc;stroke-width:0;stroke-linecap:round;stroke-linejoin:miter;stroke-miterlimit:4;stroke-opacity:1;stroke-dasharray:none;stroke-dashoffset:0" />
</svg>
