<svg width="1294" height="1294" viewBox="0 0 1294 1294" xmlns="http://www.w3.org/2000/svg"><title>neontribe_logo_vintage_2</title><g fill="#FAFDF7" fill-rule="evenodd"><path d="M647 124.166c-288.737 0-522.807 233.977-522.807 522.614 0 288.632 234.07 522.61 522.807 522.61 288.746 0 522.816-233.978 522.816-522.61 0-288.637-234.07-522.614-522.816-522.614zm123.07-49.19l113.988-21.54c19.22-3.628 37.728 4.6 47.977 21.344l61.56 100.494 112.85 26.912c19.03 4.532 32.603 19.613 35.195 39.097l15.555 116.977 92.202 70.694c15.546 11.924 21.846 31.25 16.328 50.1l-33.15 113.223 55.606 102.268c9.38 17.247 7.307 37.476-5.368 52.44l-76.112 89.878 9.404 116.155c1.58 19.587-8.496 37.22-26.132 45.713l-105.92 51.005-38.433 109.957c-6.484 18.54-22.83 30.528-42.38 31.08l-117.407 3.31-79.617 84.743c-13.434 14.287-33.217 18.558-51.297 11.07l-108.598-44.948-107.043 44.873c-18.054 7.563-37.855 3.386-51.348-10.85l-81.01-85.445-115.947-2.744c-19.56-.46-35.954-12.377-42.518-30.89l-39.427-111.175-104.814-49.894c-17.67-8.41-27.83-25.995-26.338-45.6l9.004-117.66-75.555-88.412c-12.742-14.91-14.908-35.13-5.603-52.414l55.85-103.826-33.236-111.646c-5.603-18.833.61-38.19 16.107-50.178l93.047-72.014 14.836-115.58c2.503-19.493 16.013-34.633 35.023-39.26l114.16-27.76 60.347-99.52c10.18-16.784 28.648-25.093 47.883-21.55l115.53 21.285 95.41-66.252c16.098-11.174 36.335-11.22 52.474-.116l96.915 66.66z"/><path d="M647 202.63c-245.388 0-444.31 198.85-444.31 444.15 0 245.295 198.922 444.145 444.31 444.145 245.397 0 444.318-198.85 444.318-444.145 0-245.3-198.92-444.15-444.318-444.15zm0-59.146c278.07 0 503.487 225.33 503.487 503.296 0 277.96-225.416 503.292-503.487 503.292-278.062 0-503.478-225.33-503.478-503.292 0-277.965 225.416-503.296 503.478-503.296z"/><path d="M647 300.115c-191.525 0-346.783 155.208-346.783 346.66 0 191.458 155.258 346.66 346.783 346.66 191.534 0 346.796-155.202 346.796-346.66 0-191.452-155.262-346.66-346.796-346.66zm0-22.883c204.173 0 369.69 165.452 369.69 369.543 0 204.096-165.517 369.55-369.69 369.55-204.17 0-369.684-165.454-369.684-369.55 0-204.09 165.515-369.543 369.684-369.543zM638.508 217.146h16.988v47.748h-16.988v-47.748zM671.83 217.775l16.928 1.316-3.697 47.605-16.93-1.316 3.7-47.605M705 220.987l16.778 2.622-7.378 47.172-16.777-2.623L705 220.986M737.823 226.758l16.52 3.912-11.007 46.463-16.526-3.912 11.013-46.462"/><path d="M770.096 235.053l16.17 5.18-14.58 45.47-16.17-5.18 14.58-45.47M801.633 245.824l15.72 6.413-18.056 44.204-15.722-6.417 18.058-44.2M832.24 258.997l15.173 7.617-21.428 42.672-15.173-7.612 21.428-42.677M861.732 274.51l14.54 8.767-24.672 40.885-14.54-8.767 24.672-40.885M889.935 292.255l13.816 9.868-27.766 38.85-13.816-9.868 27.767-38.85M916.678 312.13l13.012 10.91-30.697 36.585-13.007-10.91 30.692-36.586M941.798 334.02l12.132 11.884-33.438 34.094-12.13-11.884 33.436-34.094M965.153 357.784l11.166 12.787-35.977 31.404-11.175-12.782 35.985-31.408M986.59 383.29l10.145 13.614-38.303 28.524-10.146-13.613 38.304-28.525M1005.986 410.373l9.063 14.36-40.403 25.47-9.062-14.355 40.4-25.475M1023.23 438.884l7.922 15.02-42.257 22.268-7.917-15.02 42.253-22.268M1038.21 468.644l6.73 15.58-43.85 18.932-6.732-15.585 43.852-18.926M1050.836 499.468l5.504 16.057-45.187 15.48-5.504-16.06 45.186-15.477M1061.04 531.182l4.24 16.438-46.246 11.93-4.246-16.435 46.252-11.933M1068.75 563.587l2.956 16.716-47.033 8.318-2.957-16.715 47.034-8.318M1073.93 596.5l1.654 16.89-47.54 4.645-1.655-16.887 47.54-4.65M1076.545 629.708l.337 16.964-47.752.957-.342-16.97 47.757-.952M1076.577 663.016l-.975 16.95-47.69-2.748.975-16.946 47.69 2.744M1074.024 696.234l-2.286 16.82-47.33-6.436 2.29-16.815 47.326 6.43M1068.91 729.15l-3.584 16.592-46.687-10.078 3.584-16.59 46.687 10.077M1061.26 761.57l-4.857 16.272-45.767-13.663 4.853-16.268 45.77 13.658M1051.12 793.306l-6.107 15.836-44.57-17.16 6.1-15.842 44.576 17.166M1038.552 824.157l-7.32 15.32-43.1-20.566 7.31-15.32 43.11 20.567M1023.626 853.943l-8.48 14.705-41.384-23.84 8.478-14.71 41.386 23.845M1006.44 882.48l-9.593 14.01-39.413-26.97 9.593-14.01 39.413 26.97M987.097 909.605l-10.648 13.222-37.208-29.944 10.648-13.222 37.207 29.945M965.7 935.152l-11.636 12.36-34.77-32.738 11.64-12.355L965.7 935.15M942.4 958.965l-12.562 11.42-32.14-35.337 12.573-11.412 32.13 35.33M917.32 980.9l-13.412 10.41-29.294-37.713 13.41-10.41L917.32 980.9M890.618 1000.83l-14.185 9.336-26.28-39.865 14.176-9.34 26.288 39.87M862.447 1018.628l-14.86 8.22-23.116-41.79 14.86-8.213 23.117 41.783M832.986 1034.195l-15.457 7.033-19.81-43.445 15.45-7.038 19.816 43.45M802.4 1047.43l-15.945 5.822-16.386-44.85 15.95-5.822 16.38 44.85M770.887 1058.26l-16.35 4.572-12.864-45.992 16.355-4.568 12.86 45.987M738.63 1066.61l-16.66 3.295-9.26-46.844 16.66-3.287 9.26 46.836M705.82 1072.448l-16.868 1.99-5.594-47.42 16.858-1.986 5.603 47.416M672.655 1075.726l-16.965.674-1.91-47.707 16.966-.678 1.91 47.71M639.34 1076.422l-16.97-.642 1.792-47.716 16.97.642-1.793 47.716M606.064 1074.536l-16.867-1.95 5.486-47.428 16.87 1.95-5.49 47.428M573.04 1070.08l-16.665-3.25 9.148-46.864 16.665 3.252-9.148 46.863M540.46 1063.08l-16.363-4.53 12.747-46.017 16.363 4.532-12.746 46.014M508.52 1053.58l-15.97-5.785 16.284-44.887 15.96 5.78-16.274 44.89M477.41 1041.632l-15.465-7.006 19.706-43.485 15.47 7.003-19.71 43.49M447.32 1027.314l-14.88-8.18 23.026-41.836 14.876 8.18-23.022 41.836M418.434 1010.71l-14.203-9.31 26.19-39.93 14.208 9.31-26.194 39.93M390.914 991.918l-13.43-10.38 29.205-37.78 13.433 10.378-29.21 37.782M364.944 971.05l-12.6-11.39 32.05-35.405 12.59 11.39-32.04 35.406M340.66 948.23l-11.674-12.324 34.695-32.818 11.674 12.33-34.695 32.812M318.22 923.61l-10.68-13.2 37.13-30.03 10.68 13.195-37.13 30.034M297.755 897.316l-9.63-13.98 39.347-27.07 9.633 13.98-39.35 27.07M279.387 869.524l-8.51-14.69 41.327-23.94 8.51 14.69-41.327 23.94M263.23 840.384l-7.35-15.302 43.06-20.665 7.352 15.302-43.062 20.664M249.378 810.085l-6.137-15.823 44.527-17.273 6.146 15.826-44.535 17.27M237.92 778.803l-4.9-16.254 45.738-13.767 4.898 16.254-45.735 13.766M228.917 746.73l-3.622-16.582 46.665-10.186 3.622 16.582-46.665 10.186M222.43 714.056l-2.33-16.816 47.318-6.544 2.327 16.816-47.316 6.544M218.488 680.977l-1.015-16.94 47.68-2.862 1.016 16.94-47.682 2.862M217.127 647.692l.3-16.97 47.758.837-.3 16.976-47.758-.844M218.35 614.406l1.612-16.9 47.546 4.536-1.61 16.9-47.55-4.536M222.14 581.31l2.922-16.722 47.055 8.2-2.916 16.727-47.06-8.205M228.494 548.608l4.2-16.452 46.28 11.826-4.206 16.447-46.274-11.822M237.36 516.495l5.467-16.07 45.218 15.374-5.463 16.064-45.223-15.37M248.686 485.168l6.695-15.6 43.893 18.824-6.69 15.6-43.897-18.824M262.408 454.81l7.885-15.036 42.302 22.173-7.885 15.028-42.302-22.164M278.44 425.603l9.026-14.376 40.455 25.376-9.025 14.38-40.456-25.38M296.685 397.73l10.11-13.63 38.37 28.434-10.113 13.63-38.367-28.434M317.04 371.352l11.137-12.813 36.053 31.32-11.14 12.81-36.05-31.318M339.374 346.632l12.1-11.916 33.513 34.018-12.104 11.916-33.51-34.018M363.556 323.708l12.985-10.936 30.778 36.514-12.98 10.932-30.782-36.51M389.445 302.734l13.793-9.904 27.853 38.787-13.793 9.895-27.852-38.778M416.88 283.816l14.516-8.803 24.766 40.83-14.517 8.8-24.766-40.827M445.693 267.095l15.16-7.654 21.526 42.62-15.156 7.653-21.53-42.618M475.72 252.646l15.708-6.46 18.16 44.165-15.707 6.455-18.16-44.16M506.78 240.57l16.158-5.225 14.683 45.435-16.15 5.22-14.69-45.43M538.677 230.926l16.516-3.953 11.12 46.437-16.51 3.952-11.126-46.436M571.23 223.79l16.767-2.664 7.495 47.154-16.773 2.66-7.49-47.15M604.235 219.194l16.925-1.356 3.815 47.595-16.925 1.352-3.815-47.59"/><g><path d="M681.422 446.2c2.402 30.37 66.222 16.32 70.12-7.66 3.11-19.157-10.342-26.7-32.868-22.986-16.183 2.672-38.856 10.346-37.252 30.645m40.54-47.062h10.955c23.335 4.43 38.378 17.175 33.962 42.685-6.53 37.722-87.99 52.807-98.607 13.134-9.847-36.81 26.972-50.623 53.688-55.82M556.523 448.39c-.597-1.706-2.97-3.348-3.288-5.475-1.462-9.817 46.334-34.055 56.97-39.398 4.36-2.188 9.695 5.41 9.863 6.567 1.472 10.13-22.286 17.55-29.58 21.89-12.307 7.32-18.638 15.266-33.965 16.415M570.767 476.845c-.722-1.47-2.344-2.04-4.385-2.19-5.43-12.584 11.558-18.306 25.2-26.266 13.36-7.793 20.76-12.87 28.487-16.418 5.273-2.42 11.9 2.28 12.05 6.568.28 7.93-22.128 18.09-28.486 21.888-12.564 7.507-20.75 11.797-32.867 16.417M528.037 433.067c8.085 20.57 11.793 46.26 13.148 71.138-14.144 2.134-25.666-6.506-36.155-12.04-10.82-5.705-20.68-12.51-31.774-17.51-2.008 19.882 1.088 44.866-5.477 60.194h-7.67c-6.39-11.45-2.967-32.2-2.192-49.25.56-12.31-2.21-26.7 6.575-31.74 21.877 8.428 39.715 20.887 60.26 30.645-3.516-17.184-6.962-29.958-7.674-48.154 2.345-2.402 5.32-4.17 10.957-3.283M827.138 441.823c7.064 20.67 12.714 42.75 18.625 64.57 5.66-4.074 10.517-12.274 17.53-20.793 6.704-8.143 14.88-23.798 26.295-17.51 2.143 15.052-12.692 25.422-20.816 35.02-8.078 9.543-14.548 26.024-29.582 27.36-10.256-20.03-13.88-46.695-21.912-68.947-7.705 4.4-16.97 12.048-28.486 20.793-9.812 7.45-26.78 26.803-35.06 13.132 4.352-14.048 19.342-19.35 29.583-27.36 10.794-8.446 20.946-17.363 31.773-25.172.27-1.187 2.178-.74 2.19-2.19 3.99-.335 7.13.175 9.86 1.097M582.816 505.3c-2.052-2.76-4.865-3.22-4.38-8.756.598-6.856 45.396-30.133 54.78-36.116 5.065-3.23 10.798 4.836 10.955 5.472 2.492 10.033-20.82 19.046-27.39 22.984-12.62 7.563-19.82 13.645-33.964 16.416"/><path d="M741.68 492.165c1.26 3.068 1.26 5.69 0 8.757-23.84 4.497-50.672-2.398-74.5-6.565-2.38-2.118-3.196-14.04 5.48-13.136 15.357 1.606 58.187 5.09 69.02 10.945M749.35 682.597c-1.106-8.357-6.774-21.846-13.148-26.27-28.46-19.73-49.386 41.575-3.285 29.552 12.937 19.663-3.055 44.705-12.053 59.1 15.2-12.616 32.16-34.67 28.487-62.383m-190.637-39.4c-17.266-12.98-39.448 6.503-28.484 28.456 9.117.117 10.116-6.99 19.72-4.382 24.484 6.66-5.5 59.457-13.15 65.665 31.348-2.596 45.682-71.863 21.913-89.738m179.682-31.738c-6.66 5.93-16.83 12.514-29.583 12.034-18.895-.695-27.81-17.475-40.54-25.17-56.516-34.163-144.992-23.567-190.632 16.416-17.65 15.466-33.708 37.472-28.488 71.14 2.216-64.56 88.946-95.63 130.38-55.813 17.466 16.78 24.36 45.155 46.015 53.62 36.338 14.22 46.507-26.292 66.83-38.305 14.194-8.38 41.53-11.68 56.974-3.28 5.706 3.11 9.147 11.52 17.528 15.326 11.028 4.995 23.135 2.318 35.06-1.102-10.803-14.882-36.793-23.843-37.25-47.058-.137-7.075 3.392-10.2 3.288-18.608-17.795-7.64-20.34 12.57-29.58 20.8m36.15-13.136c-4.924 27.425 23.493 52.67 49.304 49.25 16.654-2.203 24.03-16.877 33.965-28.452-9.795 4.992-18.645 14.482-31.77 16.416-21.3 3.132-42.668-10.057-41.635-31.742.54-11.36 9.913-20.13 16.434-25.17 4.69-3.623 12.742-5.894 10.956-8.753-16.624 5.36-34.29 11.97-37.253 28.45m132.565 45.974c2.338 11.848 1.164 19.233-1.946 30.963-3.146 11.842-7.432 23.487-14.483 33.602-83.813 120.265-398.94 122.427-484.26 0-17.205-24.694-21.942-56.426-11.06-84.29 4.804-12.3 12.106-23.49 20.847-33.356 17.943-20.242 41.493-35.077 65.81-46.518 87.71-41.265 213.68-46.014 310.06-9.85 6.416 0 16.513 6.57 22.347 9.228 7.433 3.39 14.738 7.073 21.827 11.14 13.52 7.753 26.33 16.917 37.356 27.974 10.76 10.795 19.686 23.364 25.853 37.317 3.23 7.315 5.822 15.02 7.456 22.855.067.31.13.626.192.935M804.133 818.305c-4.115-9.41 12.022-19.777 24.102-29.546 13.333-10.797 17.696-17.038 28.484-21.89 4.872-2.19 9.692 5.46 9.86 6.562 1.28 8.358-23.765 24.555-28.486 28.455-11.373 9.402-21.38 22.152-33.96 16.418M517.08 811.737c-12.157 2.362-21.567-6.69-31.77-9.85-10.973 16.455-23.912 34.646-36.157 52.537-3.525 5.15-6.294 15.433-16.434 9.843-.15-2.03-.72-3.655-2.192-4.372 10.288-24.014 26.858-41.756 39.444-63.48-7.953-5.14-33.872-9.612-19.723-22.983 10.37-.15 20.26 6.466 36.155 13.135 13.974 5.862 39.37 8.7 30.675 25.17M877.537 798.602c8.514 11.168-16.88 25.372-26.298 32.832-11.943 9.476-23.412 23.883-35.06 15.327 1.586-14.45 17.71-20.943 27.392-28.455 9.713-7.536 19.613-21.482 33.965-19.703M577.34 833.626c.09-8.043-14.036-11.318-25.198-12.035-3.61 7.702-6.736 15.893-9.862 24.075 14.045-.992 34.944-1.523 35.06-12.04m3.286 77.706h-4.38c-15.357-15.673-24.457-37.587-39.444-53.623-5.657 7.127-9.207 42.16-21.913 40.495-11.31-1.492-3.52-15.845-1.094-21.89 9.822-24.49 19.3-54.796 30.674-71.137 25.128.854 50.705 9.305 48.21 31.732-1.8 16.17-19.234 18.58-33.966 24.08 4.145 12.173 37.613 38.93 21.912 50.344M728.532 824.872c4.246 22.027 8.036 44.504 12.054 66.756 12-3.665 34.12-4.74 32.87-18.602-1.19-13.15-25.632-8.726-30.68-16.416-6.79-10.346 7.03-11.553 10.957-14.23 5.767-3.923 10.996-10.314 6.575-18.602-9.194-4.41-22.35-.755-31.776 1.094m40.538 24.08c12.734 6.5 24.22 17.678 18.627 33.923-6.49 18.848-39.006 23.957-58.067 24.08-7.784-25.085-13.06-61.107-16.435-89.745 10.315-9.733 37.486-14.28 51.494-8.753 13.727 5.413 17.117 32.34 4.38 40.496"/><path d="M685.805 823.778c-2.9 7.368-16.806 6.235-21.913 5.472-7.284 19.72-11.31 42.69-17.53 63.48 7.502 3.045 23.8 2.03 17.53 15.314-14.443 5.056-33.992-2.073-49.3-3.28-1.504-4.59-2.863-7.963 0-12.035 4.517-3.4 8.462-.7 15.337-1.102 7.34-18.2 11.2-39.882 16.432-60.194-4.975-3.05-17.225 1.167-20.815-3.28.177-1.272-.244-1.945-1.097-2.192-1.995-15.524 21.548-10.944 39.442-10.944 12.233 0 23.447-.29 21.913 8.76M886.302 825.962c27.48 4.04-8.918 27.98-16.434 33.933-4.544 3.592-35.388 33.09-38.346 15.317-1.307-7.845 19.122-20.37 25.197-25.17 11.824-9.336 20.402-16.86 29.582-24.08"/></g><g><text font-family="Courier" font-size="40" font-weight="bold" transform="translate(326 322)"><tspan x="595" y="350">98</tspan></text><text font-family="Courier" font-size="40" font-weight="bold" transform="translate(326 322)"><tspan x="0" y="350">19</tspan></text><path d="M630.84 345.832s11.893 2.365 11.354 12.807c-.227-.077-.526-.152-.83-.152h-5.11c-1.376 0-2.52 1.067-2.52 2.438v5.11c0 1.37 1.144 2.44 2.52 2.44h5.11c1.37 0 2.438-1.07 2.438-2.44v-5.11c0-.227 0-.456-.077-.685.987-4.802.76-13.19-10.673-18.984 0 0 6.172-10.52 14.483-14.027 8.31 3.506 14.485 14.026 14.485 14.026-11.437 5.793-11.666 14.182-10.673 18.985-.077.23-.077.46-.077.686v5.11c0 1.37 1.07 2.44 2.446 2.44h5.103c1.37 0 2.44-1.07 2.44-2.44v-5.11c0-1.37-1.07-2.438-2.44-2.438h-5.104c-.312 0-.613.075-.92.15-.457-10.44 11.44-12.806 11.44-12.806 2.837 14.735.46 30.563-15.326 37.204v-3.126h1.444c1.145 0 2.14-.914 2.14-2.136v-5.795c0-1.22-.995-2.21-2.14-2.21h-5.642c-1.137 0-2.132.99-2.132 2.21v5.794c0 1.222.995 2.136 2.132 2.136h1.376v3.097c-15.72-6.66-18.09-22.463-15.248-37.175zm13.872 39.414s-36.974 10.52-47.036-16.466c-4.122-19.14 14.71-26.457 31.412-23.33 0 0-9.683 27.672 15.857 38.575l-.233 1.22zm52.69-16.466c-10.068 26.987-47.048 16.466-47.048 16.466l-.227-1.22c25.538-10.904 15.86-38.576 15.86-38.576 16.695-3.127 35.53 4.19 31.414 23.33zm-48.492 24.353v-6.983c7 4.465 20.507 2.452 20.507 2.452 35.3-2.29 30.42-28.97 30.42-28.97-7.775-27.602-36.52-19.824-36.52-19.824-2.36-8.156-9.756-12.35-15.782-17.307-6.094 4.96-13.414 9.152-15.855 17.308 0 0-28.667-7.778-36.44 19.824 0 0-4.88 26.68 30.416 28.97 0 0 13.405 1.996 20.432-2.403v6.933h2.822zM742.264 956.23c-5.033 1.83-11.144 2.8-18.23 2.8-3.24 0-6.66-.242-10.04-.614-4.645-.487-9.272-1.45-14.017-2.676-8.46-2.19-15.796-5.11-22.052-8.767 7.493-2.187 14.566-4.018 21.093-5.6 5.57-1.216 10.61-1.943 14.975-2.187h2.155c11.563 0 20.134 1.093 25.578 3.16 5.435 2.198 8.174 4.874 8.174 7.91 0 2.073-2.46 4.144-7.636 5.973zm5.175-14.98c-5.44-2.913-13.865-4.383-25.58-4.383-2.584 0-5.29.125-7.867.245-5.593.367-10.89.976-16.207 2.074-7.895 1.46-15.904 3.16-23.938 5.23-4.77-3.528-7.904-7.182-9.396-11.073-.536-1.098-1.07-1.58-1.626-1.465-.668 0-.803.607-.546 1.707 1.233 2.434 2.45 4.503 3.957 6.205 1.497 1.712 3.118 3.536 5.168 5.238-11.97 3.048-24.085 6.088-36.462 9.132-12.38 3.038-25.427 4.498-39.308 4.498-2.45 0-5.975-.115-10.76-.49-.388 0-.935-.11-1.356-.11-5.435-.486-11.148-1.586-16.99-3.29-5.714-1.71-11.15-4.39-15.927-7.795-3.184-2.3-5.686-5.163-7.53-8.6l-2.448.977c1.74 3.507 4.006 6.537 6.858 9.088 4.77 4.257 10.058 7.425 16.043 9.73 5.855 2.32 11.842 3.79 17.968 4.638 1.208.112 2.3.24 3.382.367 4.632.486 8.575.728 11.852.728 5.84 0 11.97-.485 18.357-1.464 6.527-.975 13.062-2.313 19.858-3.893 6.81-1.7 13.61-3.412 20.404-5.363 6.81-1.947 13.336-3.77 19.592-5.593 4.213 3.042 8.837 5.47 13.87 7.3 5.036 1.956 10.067 3.416 14.69 4.507 3.677.73 7.206 1.46 10.493 1.824.817.128 1.74.128 2.693.243 3.947.372 6.94.5 8.855.5 2.987 0 6.118-.26 9.532-.614 3.397-.492 6.525-1.223 9.638-2.197 2.99-.98 5.58-2.184 7.626-3.774 2.05-1.463 2.993-3.282 2.993-5.476 0-2.807-2.576-5.725-7.89-8.65zM518.64 359.634c-4.708 0-8.514 3.81-8.514 8.51 0 4.704 3.806 8.517 8.514 8.517 4.7 0 8.515-3.812 8.515-8.515 0-4.702-3.815-8.51-8.515-8.51zm27.687-2.708c-6.196 0-11.23 5.02-11.23 11.22 0 6.197 5.034 11.223 11.23 11.223 6.204 0 11.228-5.027 11.228-11.225 0-6.198-5.024-11.22-11.228-11.22zM775.364 359.634c4.704 0 8.515 3.81 8.515 8.51 0 4.704-3.812 8.517-8.516 8.517-4.704 0-8.514-3.812-8.514-8.515 0-4.702 3.81-8.51 8.514-8.51zm-27.69-2.708c6.2 0 11.228 5.02 11.228 11.22 0 6.197-5.028 11.223-11.23 11.223-6.2 0-11.222-5.027-11.222-11.225 0-6.198 5.023-11.22 11.223-11.22z"/></g></g></svg>