<svg width="274" height="223" viewBox="0 0 274 223" xmlns="http://www.w3.org/2000/svg"><title>twitter</title><path d="M273.39 27.123c-10.06 4.46-20.87 7.476-32.215 8.832 11.58-6.942 20.474-17.934 24.662-31.03-10.837 6.426-22.84 11.094-35.617 13.61C219.988 7.635 205.41.822 189.28.822c-30.978 0-56.092 25.113-56.092 56.088 0 4.396.497 8.677 1.453 12.782-46.615-2.34-87.944-24.67-115.608-58.603-4.828 8.283-7.594 17.918-7.594 28.197 0 19.46 9.903 36.627 24.953 46.685-9.194-.29-17.842-2.814-25.405-7.015-.004.234-.004.47-.004.705 0 27.176 19.335 49.846 44.994 54.998-4.707 1.282-9.662 1.967-14.778 1.967-3.614 0-7.128-.35-10.552-1.006 7.137 22.285 27.85 38.5 52.395 38.954-19.197 15.043-43.382 24.01-69.66 24.01-4.527 0-8.992-.265-13.38-.783C24.822 213.716 54.305 223 85.98 223c103.168 0 159.584-85.467 159.584-159.586 0-2.432-.054-4.85-.162-7.256C256.36 48.25 265.87 38.37 273.39 27.123" fill="#5D9EC9" fill-rule="evenodd"/></svg>